<?xml version="1.0" encoding="UTF-8"?>
<!DOCTYPE svg PUBLIC "-//W3C//DTD SVG 1.1//EN" "http://www.w3.org/Graphics/SVG/1.1/DTD/svg11.dtd">
<!-- Creator: CorelDRAW 2019 (64-Bit) -->
<svg xmlns="http://www.w3.org/2000/svg" xml:space="preserve" width="5.20846in" height="4.64617in" version="1.1" style="shape-rendering:geometricPrecision; text-rendering:geometricPrecision; image-rendering:optimizeQuality; fill-rule:evenodd; clip-rule:evenodd"
viewBox="0 0 5202.86 4641.17"
 xmlns:xlink="http://www.w3.org/1999/xlink"
 xmlns:xodm="http://www.corel.com/coreldraw/odm/2003">
 <defs>
  <style type="text/css">
   <![CDATA[
    .str1 {stroke:#2B2A29;stroke-width:3;stroke-miterlimit:2.61313}
    .str0 {stroke:#2B2A29;stroke-width:13.87;stroke-miterlimit:2.61313}
    .fil1 {fill:none}
    .fil0 {fill:#FEFEFE}
    .fil5 {fill:#E31E24}
    .fil4 {fill:#B8B8DD}
    .fil3 {fill:#838383}
    .fil2 {fill:#333671}
    .fil7 {fill:#333671;fill-rule:nonzero}
    .fil6 {fill:#363681;fill-rule:nonzero}
   ]]>
  </style>
 </defs>
 <g id="Layer_x0020_1">
  <metadata id="CorelCorpID_0Corel-Layer"/>
  <g id="_2206810564160">
   <polygon class="fil0" points="354.25,2764.35 694.17,3180.57 239.79,3447.64 1139.87,3638.41 1164.14,3808.37 2601.43,4277.48 4042.14,3810.96 4049.95,3645.33 4961.3,3461.5 4957.4,3427.24 4518.2,3179.24 4868.52,2752.61 3892.13,3012.75 4034.34,3182.71 3621.58,3326.65 2601.43,3666.75 1437.55,3287.41 1160.07,3189.42 1324.82,3009.93 "/>
   <g>
    <g>
     <g>
      <path class="fil1 str0" d="M1577.3 3486.01c48.16,-2.78 90.88,-0.11 120.53,15.61 25.43,20.06 28.05,44.68 13.01,72.84l-19.69 34.1c-7.82,12.17 -101.27,-31.59 -103.02,5.09 -0.07,18.56 103.9,-6.6 78.2,37.9l-41.45 71.8c-90.37,-12.86 -172.81,-21.49 -164.87,18 169.17,-36.99 231.68,154.82 356.38,103.18 -64.84,-4.76 -115.96,-50.74 -134.41,-91.92l96.27 -155.65c64.3,-121.77 -103,-165.42 -200.95,-110.95z"/>
      <path id="1" class="fil2" d="M1577.3 3486.01c48.16,-2.78 90.88,-0.11 120.53,15.61 25.43,20.06 28.05,44.68 13.01,72.84l-19.69 34.1c-7.82,12.17 -101.27,-31.59 -103.02,5.09 -0.07,18.56 103.9,-6.6 78.2,37.9l-41.45 71.8c-90.37,-12.86 -172.81,-21.49 -164.87,18 169.17,-36.99 231.68,154.82 356.38,103.18 -64.84,-4.76 -115.96,-50.74 -134.41,-91.92l96.27 -155.65c64.3,-121.77 -103,-165.42 -200.95,-110.95z"/>
     </g>
     <g>
      <path class="fil1 str0" d="M1710.37 3804.37l145.24 -251.9c10.83,-12.5 33.26,-3.54 24.94,14.02l-153.06 256.31 -17.12 -18.43z"/>
      <path id="1" class="fil2" d="M1710.37 3804.37l145.24 -251.9c10.83,-12.5 33.26,-3.54 24.94,14.02l-153.06 256.31 -17.12 -18.43z"/>
     </g>
     <g>
      <path class="fil1 str0" d="M1767.14 3590.66l197.88 47.69c37.37,9.31 29.3,27.93 27.99,70.96 -0.46,15.15 -43.6,27.49 -92.79,21.93 -46.7,-5.27 -99.34,-32.95 -108.84,-34.15l-8.67 18.21c34.34,14.06 97.41,11.41 96.69,69.79l-3.04 121.84c1.27,19.39 6.97,31.47 30.35,35.12l88.68 14.74c-20.23,-16.47 -62.43,-36.86 -59.26,-55.07l0.96 -75.44c1.01,-34.25 -13.39,-56.79 -20.18,-77.17l89.75 0.43c32.03,-3.18 46.73,-23.71 44.65,-58.1 -2.72,-43.91 -18.72,-62.97 -54.98,-72.76l-228.99 -44.29 -0.2 16.27z"/>
      <path id="1" class="fil2" d="M1767.14 3590.66l197.88 47.69c37.37,9.31 29.3,27.93 27.99,70.96 -0.46,15.15 -43.6,27.49 -92.79,21.93 -46.7,-5.27 -99.34,-32.95 -108.84,-34.15l-8.67 18.21c34.34,14.06 97.41,11.41 96.69,69.79l-3.04 121.84c1.27,19.39 6.97,31.47 30.35,35.12l88.68 14.74c-20.23,-16.47 -62.43,-36.86 -59.26,-55.07l0.96 -75.44c1.01,-34.25 -13.39,-56.79 -20.18,-77.17l89.75 0.43c32.03,-3.18 46.73,-23.71 44.65,-58.1 -2.72,-43.91 -18.72,-62.97 -54.98,-72.76l-228.99 -44.29 -0.2 16.27z"/>
     </g>
     <g>
      <path class="fil1 str0" d="M2068.75 3939.39l45.08 -26.45 12.55 -125.3 -18.21 -16.91 45.52 -4.77 142.21 -27.75 54.63 36.85 55.07 0.87 -54.2 28.18 -14.75 134.84 18.64 14.31 -32.52 5.21 -149.15 22.54 -60.27 -41.62 -44.61 0zm110.44 -163.05l-15.17 140.47 43.35 30.35 78.05 1.73 13.44 -148.29 -58.1 -28.18 -61.57 3.91z"/>
      <path id="1" class="fil2" d="M2068.75 3939.39l45.08 -26.45 12.55 -125.3 -18.21 -16.91 45.52 -4.77 142.21 -27.75 54.63 36.85 55.07 0.87 -54.2 28.18 -14.75 134.84 18.64 14.31 -32.52 5.21 -149.15 22.54 -60.27 -41.62 -44.61 0zm110.44 -163.05l-15.17 140.47 43.35 30.35 78.05 1.73 13.44 -148.29 -58.1 -28.18 -61.57 3.91z"/>
     </g>
     <g>
      <path class="fil1 str0" d="M2701.18 3892.52l-11.28 36.41 -2.17 53.76 26.01 21.24 -142.87 65.25 -45.96 -17.78 -50.72 -4.55 -30.35 33.6 -18.64 -14.74 114.24 -128.12 -57.02 -1.09 -58.11 13.65 30.35 -33.82 0 -52.03 -16.48 -19.94 61.13 -11.71 78.48 -49.43 13.44 11.27 63.74 4.76c0,0 -17.34,-29.92 8.68,-38.59 26.02,-8.67 35.12,17.34 35.12,17.34 0,0 2.17,15.18 -3.47,20.81 -5.64,5.64 -105.79,117.93 -105.79,117.93l58.53 -3.47 53.15 -20.79zm-208.35 129.84l31.21 3.47 50.3 -10.84 57.23 6.5 1.24 -87.15 -64.18 3.45 -75.8 84.57zm135.28 -187.09l-87.15 -3.9 -31.65 16.47 -1.3 56.36 8.12 14.21 46.03 -0.43 73.32 -81.42 -7.37 -1.3z"/>
      <path id="1" class="fil2" d="M2701.18 3892.52l-11.28 36.41 -2.17 53.76 26.01 21.24 -142.87 65.25 -45.96 -17.78 -50.72 -4.55 -30.35 33.6 -18.64 -14.74 114.24 -128.12 -57.02 -1.09 -58.11 13.65 30.35 -33.82 0 -52.03 -16.48 -19.94 61.13 -11.71 78.48 -49.43 13.44 11.27 63.74 4.76c0,0 -17.34,-29.92 8.68,-38.59 26.02,-8.67 35.12,17.34 35.12,17.34 0,0 2.17,15.18 -3.47,20.81 -5.64,5.64 -105.79,117.93 -105.79,117.93l58.53 -3.47 53.15 -20.79zm-208.35 129.84l31.21 3.47 50.3 -10.84 57.23 6.5 1.24 -87.15 -64.18 3.45 -75.8 84.57zm135.28 -187.09l-87.15 -3.9 -31.65 16.47 -1.3 56.36 8.12 14.21 46.03 -0.43 73.32 -81.42 -7.37 -1.3z"/>
     </g>
     <g>
      <path class="fil1 str0" d="M2941.79 3721.35l72.4 23.84 -25.58 16.47 24.27 128.33c7.46,34.63 30.79,32.56 56.8,24.28 -48.71,58.7 -102.47,44.63 -110.56,0.43l-92.79 52.03c-77.87,18.79 -121.12,-43.43 -54.84,-113.06l31.42 -27.43 -37.73 -36c-1.22,-1.79 -32.68,0.72 -38.26,-26.92 -3.88,-19.21 32.83,-53.45 57.3,-16.8 8.57,12.84 3.96,24.08 6.95,22.25l110.62 -47.43zm-113.91 70.61l28.4 25.36 39.02 18.43 -42.49 6.94c-14.11,17.46 -28.19,27.22 -28.65,49.61 -0.68,33.15 14.09,54.84 59.42,44.04l69.37 -48.13 -14.31 -94.95c-19.14,-57.23 -73.84,-0.87 -110.76,-1.3z"/>
      <path id="1" class="fil2" d="M2941.79 3721.35l72.4 23.84 -25.58 16.47 24.27 128.33c7.46,34.63 30.79,32.56 56.8,24.28 -48.71,58.7 -102.47,44.63 -110.56,0.43l-92.79 52.03c-77.87,18.79 -121.12,-43.43 -54.84,-113.06l31.42 -27.43 -37.73 -36c-1.22,-1.79 -32.68,0.72 -38.26,-26.92 -3.88,-19.21 32.83,-53.45 57.3,-16.8 8.57,12.84 3.96,24.08 6.95,22.25l110.62 -47.43zm-113.91 70.61l28.4 25.36 39.02 18.43 -42.49 6.94c-14.11,17.46 -28.19,27.22 -28.65,49.61 -0.68,33.15 14.09,54.84 59.42,44.04l69.37 -48.13 -14.31 -94.95c-19.14,-57.23 -73.84,-0.87 -110.76,-1.3z"/>
     </g>
     <g>
      <path class="fil1 str0" d="M2991.66 3751.14l96.25 -67.85c49.55,-36.1 74.64,-6.9 98.85,28.18 25,-23.27 49.78,-43.72 74.79,-66.99 4.07,-0.2 40.96,14.37 66.99,15.39l-36.85 45.96 -67.64 0.43 -28.18 29.05 13.01 119.23c9.3,27.82 38.49,19.09 69.8,-1.73 -74.05,92.23 -115.09,35.51 -184.26,65.03 19.36,-24.14 59.11,-23.99 55.5,-43.79l-18.65 -107.96c-17.14,-85.02 -94.81,-9.03 -139.61,-14.95z"/>
      <path id="1" class="fil2" d="M2991.66 3751.14l96.25 -67.85c49.55,-36.1 74.64,-6.9 98.85,28.18 25,-23.27 49.78,-43.72 74.79,-66.99 4.07,-0.2 40.96,14.37 66.99,15.39l-36.85 45.96 -67.64 0.43 -28.18 29.05 13.01 119.23c9.3,27.82 38.49,19.09 69.8,-1.73 -74.05,92.23 -115.09,35.51 -184.26,65.03 19.36,-24.14 59.11,-23.99 55.5,-43.79l-18.65 -107.96c-17.14,-85.02 -94.81,-9.03 -139.61,-14.95z"/>
     </g>
     <g>
      <path class="fil1 str0" d="M3297.89 3677.04c14.09,-3.18 84.33,-39.31 91.7,14.09l23.85 148.71c-68.85,39.44 -24.16,160.16 130.51,42.49 4.78,-10.14 -5.53,-13.76 -13.9,-7.56 -15.75,13.63 -62.96,39.46 -93.57,42.13 -28.93,2.52 -50.05,-29.84 -10.9,-58.85l149.58 -110.13c31.86,-33.09 40.4,-76.84 12.14,-137.67 -33.24,-54.74 -100.09,13.87 -133.11,38.38 -57.9,-73.83 -95.26,-15.29 -156.31,28.41zm164.11 -7.4c0,2.6 14.74,122.7 14.74,122.7l39.45 -26.45c8.53,-5.2 45.23,-40.76 30.79,-92.35 -16.62,-64.17 -46.68,-43.79 -84.98,-3.9z"/>
      <path id="1" class="fil2" d="M3297.89 3677.04c14.09,-3.18 84.33,-39.31 91.7,14.09l23.85 148.71c-68.85,39.44 -24.16,160.16 130.51,42.49 4.78,-10.14 -5.53,-13.76 -13.9,-7.56 -15.75,13.63 -62.96,39.46 -93.57,42.13 -28.93,2.52 -50.05,-29.84 -10.9,-58.85l149.58 -110.13c31.86,-33.09 40.4,-76.84 12.14,-137.67 -33.24,-54.74 -100.09,13.87 -133.11,38.38 -57.9,-73.83 -95.26,-15.29 -156.31,28.41zm164.11 -7.4c0,2.6 14.74,122.7 14.74,122.7l39.45 -26.45c8.53,-5.2 45.23,-40.76 30.79,-92.35 -16.62,-64.17 -46.68,-43.79 -84.98,-3.9z"/>
     </g>
    </g>
    <g>
     <line class="fil1 str1" x1="1128.15" y1="3193.77" x2="1503.97" y2= "3335.91" />
     <g>
      <g>
       <path class="fil2" d="M327.01 2721.57l1286.7 348.93 -137.89 197.72 1125.61 366.09 0 64.89 -1201.09 -402.48 157.84 -206.2 -229.8 -60.71 -146.47 184.29 2.57 569.28 1416.94 463.91 0 49.29 -1472.39 -468.24 0.57 -158.93 -919.71 -184.89 0 -54.84 441.8 -258.39 -362.03 -411.02 37.34 -38.69zm77.1 75.06l875.8 239.32 -151.75 157.82 -1.73 417.07 -832.44 -171.69 440.49 -253.2 -330.36 -389.32z"/>
       <polygon class="fil2" points="1181.92,3214.1 1400.34,3296.72 1558.18,3090.52 1328.38,3029.82 "/>
      </g>
      <g>
       <path class="fil2" d="M4875.85 2721.57l-1286.7 348.93 137.89 197.72 -1125.61 366.09 0 64.89 1201.09 -402.48 -157.84 -206.2 229.8 -60.71 146.47 184.29 -2.57 569.28 -1416.94 463.91 0 49.29 1472.39 -468.24 -0.57 -158.93 919.71 -184.89 0 -54.84 -441.8 -258.39 362.03 -411.02 -37.34 -38.69zm-77.1 75.06l-875.8 239.32 151.75 157.82 1.73 417.07 832.44 -171.69 -440.49 -253.2 330.36 -389.32z"/>
       <polygon class="fil2" points="4020.94,3214.1 3802.51,3296.72 3644.67,3090.52 3874.47,3029.82 "/>
      </g>
     </g>
    </g>
   </g>
   <g>
    <g>
     <path class="fil3" d="M1290.96 1464.45l70.41 -121.18 311.12 350.11 62.43 379.8 -163.02 225.45c127.5,-366.51 -59.78,-607.13 -280.95,-834.18z"/>
     <path class="fil3" d="M3911.89 1464.45l-70.41 -121.18 -311.12 350.11 -62.43 379.8 163.02 225.45c-127.5,-366.51 59.78,-607.13 280.95,-834.18z"/>
     <path class="fil4" d="M1485.02 1119.03c509.19,184.3 837.21,13.67 1119.44,-246.7 329.41,327.75 700.71,408.75 1113.37,246.27 47.98,85.27 95.96,170.53 143.94,255.8 -733,754.75 111.39,1032.51 -159.54,1528.94 -188.54,345.46 -885.05,128.79 -1098.66,465.46 -219.15,-327.73 -955.48,-91.54 -1115.29,-502.81 -210.33,-541.29 563.74,-769.52 -145.51,-1488.99 47.42,-85.99 94.83,-171.98 142.25,-257.97z"/>
     <path class="fil0" d="M2454.04 1400.5c6.58,-2.9 2.12,-8.1 3.52,-16.73l20.85 -1.7c-0.94,-15.69 -9.91,-6.35 -2.81,-23.26 2.95,-7.03 7.36,-12.84 8.74,-20 3.98,-20.65 -13.7,-15.34 -21.06,-34.81 -0.76,0.25 -1.59,0.79 -2.13,1.03l-7.44 3.04c-16.75,3.03 -29.13,-37.13 -41.38,-3.08 -22.44,-0.89 -20.46,-11.55 -38.77,2.29 -10.1,7.64 -24.44,10.85 -35.36,15.92 -9.69,4.5 4.09,0.51 -9.05,4.13 -27.73,7.64 -18.1,-3.87 -24.97,-18.62 -19.28,-3.08 -18.64,9.73 -39.6,-0.9 -5.17,-10.82 12.46,-33.94 -19.5,-28.69 -5.07,-32.57 -14.04,10.56 -43.49,-38.29 -9.97,-16.54 -6.85,2.95 -18.86,-30.88 -22.64,0.09 -13.55,8.73 -25.63,13.45 -18.22,7.12 -7.62,-8.49 -25.96,-8.42 -10.79,0.04 -19.89,7.49 -26.76,10.97 -14.21,7.2 -8.89,-3.66 -28.13,1.78 3.93,5.8 6.49,7.3 6.7,15.82 -25.39,-4.25 -15.52,-16.23 -42.33,-4.55 -8.42,3.67 -6.78,4.8 -11.14,10.55 -7.52,9.93 -8.9,3.02 -11.96,19.31 -12.03,3.71 -24.16,5.8 -14.53,21.2 8.71,13.93 17.98,7.28 31.78,3.73 8.1,10.3 5.51,17.01 15.02,27.2 18.66,2.73 13,-1.97 24.48,-3.55 2.57,11.9 -5.6,14.43 -2.14,20.78 5.44,9.99 12.22,1.12 22.03,2.7 7.9,10.09 3.32,22.26 -8.47,26.6 -26.39,9.72 -12.59,-0.09 -15.05,18.24 -7.88,2.49 -14.17,3.2 -22.18,0.87 -1.31,10.7 -2.18,15.75 3.1,23.01 9.9,13.62 6.32,1.65 4.82,20.43 -0.78,9.71 3.8,12.46 4.65,22.5 0.81,9.61 -2.52,15.03 -2.58,23.23 -0.11,16.21 17.47,14.6 30.77,26.27 4.62,4.05 11.07,7.65 20.45,9.3 14.59,2.58 10.47,0.18 17.26,-4.67 0.74,9.58 -5.07,14.9 -0.45,20.29 6.35,7.17 -3.36,-0.55 5.16,3.17 1.39,0.61 4.17,1.29 5.92,1.81 7.06,2.1 4.74,0.98 10.63,3.98 6.99,3.56 13,5.07 19.01,8.04l-0.31 15.38c-13.52,4.61 -21.87,0.61 -35.27,9.02 -15.09,9.47 -14.34,3.39 -22.44,20.61 3.09,9.3 5.75,1.87 7.92,14.71 1.18,6.95 -1.97,8.49 -4.69,14.69l9.21 6.07c0.23,-0.41 1.09,0.49 1.55,0.84 -8.35,8.97 -9.82,4.83 -18.5,10.65 -9.81,6.59 -3.33,8.94 -11.41,17.27 -12.07,12.46 -24.69,10.28 -18.82,34.27 -31.79,23.14 -36.53,-8.28 -45.44,44 -10.56,7.3 -3.17,-2.99 -10.32,8.15 -13.34,20.8 -1.01,17.61 -25.71,29.6 -4.27,2.07 -10.34,6.7 -11.97,7.35 -14.32,5.74 3.01,-3.32 -8.88,-1.52 -6.48,0.98 -4.28,11.04 -18.98,15.16 4.36,28.74 -10.78,17.39 -20.81,36.67 -12.5,24.01 -16.75,8.8 -43.09,12.73 -4.28,0.64 -1.57,-0.85 -9.42,1.26 -13.38,3.6 -5.99,8.87 -19.62,13.69 -11.9,-5.34 -9.56,-21.38 -11.56,-33.88 -19.93,-2.81 -22.28,1.84 -31.34,12.03 -4.33,4.87 -11.24,8.25 -13.3,11.13 -7.26,10.08 4.08,4.65 -7.6,13.52 -13.26,10.07 -2.48,-3.76 -11.55,12.59 -5.6,10.09 -32.89,24.91 -15.79,38.66 8.35,4.25 4.43,0.92 11.82,3.22 7.18,2.24 4.59,2.13 9.93,4.68 12.64,6.06 29.18,-3.32 14.4,32.06 -2.68,6.41 -3.17,8.57 -1.05,14.18 7.85,20.87 19.41,12.85 40.03,19.98 -3.66,9.51 -5.2,3.25 -6.22,11.03 -1.46,11.08 15.48,21.82 17.85,31.26 2.15,8.57 -2.21,5.65 0.23,14.08 2.88,9.92 6.25,4.54 4.54,17.3 -1.57,11.77 -2.49,10.46 4.5,18.01 -21.26,-0.39 -9.42,-3.99 -17.57,10.59l-17.4 -3.83 -3.08 -16.38c-9.16,6.97 -9.71,5.51 -26.25,4.85l-3.84 14.24c-47.65,-1.27 -26.86,-4.23 -44.21,-11.41 -30.22,10.5 -19.18,-0.55 -35.27,0.49l-18.73 -4.2 -1.77 22.56c-17.15,2.8 -43.87,-7.96 -34.81,14.96 -8.66,7.25 -4.9,-1.27 -8.77,7.14 7.67,4.92 22.26,1.48 23.72,-1.84 0.39,-0.88 1.35,-0.7 2.07,-0.99 -5.15,17.28 -2.71,16.82 6.69,28.15 8.5,10.25 8.83,11.1 20.84,17.93 79.91,45.45 39.37,10.72 82.66,12.74 27.25,1.27 3.21,-1.8 26.5,-7.63 -7.72,18.73 -32.74,32.5 -53.38,37.05 -59.21,13.05 -29.4,6.01 -54.09,-5.62 -5.53,8.47 -5.37,1.98 -1.95,14.06l29.68 35.46c15.86,11.63 9.05,13.49 21.55,26.46 5.27,5.46 12.99,10.61 17.71,16.07 9.03,10.45 0.79,7.52 15.14,16.17 5.26,3.17 14.32,18.39 44.38,21.73 5.62,-9.74 -1.46,-5.39 17.66,-5.69 16.6,-0.26 10.9,-1.06 20.3,-8.01 7.91,-5.86 12.58,-4.17 22.87,-6.91 27.95,-7.44 25.7,-16.55 31.79,-23.92 7.76,-9.38 7.29,-3.16 7.1,-19.74 -0.18,-15.48 -0.63,-31.73 6.89,-43.18l9.58 6.2 -2.38 20.73 7.83 2.1 -6.26 14.49 21.09 4.14c-8.15,13.43 -20.84,11.47 -13.47,32.98 19.02,55.53 8.71,35.37 3.84,54.91 -2.42,9.72 1.77,4.5 -4.21,14.63 -5.44,9.22 -11.24,13.57 -6.43,24.25 2.06,4.59 9.19,14.98 9,20.19 -0.2,5.27 -4.7,15.85 -4.36,31.44 0.49,-0.51 0.99,-1.25 1.29,-1.66 0.29,-0.41 0.88,-1.15 1.23,-1.65l2.16 -3.32c3.38,-5 6.08,-8.46 11.93,-6.21 1.71,9.5 -16.93,19.8 -9.56,38.26 4.55,11.41 6.06,1.75 7.79,17.42 2.06,18.7 9.52,21.36 13.65,39.84 1.74,7.81 -0.9,8.46 3.24,19.64 4.9,13.23 -0.72,6.55 0.82,20.03 1.98,17.35 8.56,37.75 12.49,54.46 2.45,10.41 8.1,9.94 12.98,25.73 3.02,9.77 7.24,13.82 10.69,21.98 0.22,0.53 0.44,1.16 0.69,1.68l16.77 26.87c7.45,8.73 6.48,21.82 22.59,28.82 -5.25,16.63 -3,1.21 0.96,13.66 4.65,14.62 -6.9,2.34 9.51,28.36l6.65 14.45c-0.04,38.66 6.49,26.57 11.2,52.13 2.14,11.59 8.8,19.25 12.58,32.44 4.16,14.53 6.57,10.65 15.57,20.51 7.8,8.56 16.39,12.74 19.83,16.56 6.23,6.92 -1.11,5.64 16.09,31.29 5.18,7.72 2.13,9.19 5.47,18.06 4.69,12.48 5.66,3.8 6.83,11.63 3.89,25.83 4.86,19.52 16.38,41.29 5.48,10.36 -5.29,-1.45 4.2,21 4.16,9.85 1.43,12.27 2.5,21.5 0.79,6.74 12.13,36.09 21.19,42.39 4.15,2.89 3.81,1.52 7.35,4.78 3.28,3.02 3.09,3.94 5.26,6.78 9.24,12.08 26.61,25.3 42.84,30.04 33.06,9.64 26.88,-1.25 51.74,-10.27 7.99,-2.9 9.14,-1.72 15.59,-6.65 2.53,-3.6 -12.73,-35.2 29.79,-41.77 12.51,-1.93 23.71,-6.47 34.2,-7.78 16.28,-2.03 21.1,3.24 33.36,4.75 -2.64,-20.36 -18.87,-1.06 -34.62,-15.35 -6.07,-11.54 3.07,-18.71 9.78,-23.49 15.88,-11.32 6.3,-9.1 11.49,-26.53 13.08,-7.24 28.23,-9.67 45.27,-8.78 -0.13,-14.62 -2.52,-27.92 -1.69,-42.55 1.55,-27.1 -4.08,-30.95 -4.06,-31.34 2.44,-18.97 -2.48,-29.62 8.83,-41.31 8.11,-8.38 20.13,-16.66 11.11,-30.83 19.23,-7.9 13.24,-15.47 17.76,-35.3 4.31,-18.89 -0.75,-22.46 -14.33,-31.68 6.23,-2.76 9.73,1.46 14.49,4 0.61,-18.07 -6.54,-31.49 -17.36,-38.64 6.99,-7.8 10.49,-8.37 7.72,-23.15 -7.24,-38.66 -9.87,-36.64 -0.55,-55.32 3.42,-6.85 6.53,-15.62 12.82,-20.54 4.09,-3.2 21.15,-11.37 27.31,-9.51 13.78,4.14 -2.01,3.81 10.28,10.18 11.65,6.04 28.09,-37.8 35.82,-46.62 15.85,2.35 48.34,5.87 61.76,-5.83 17.28,-13.34 -8.31,-28.76 14.52,-42.18 11.15,-6.55 9.2,-2.72 19.85,-11.92 11.53,-9.96 28.02,-8 38.84,-22.28 6.21,-8.2 4.34,-13.21 8.89,-21.88 7.04,-13.41 37.22,-21.5 37.26,-21.59 0.36,-0.77 1.4,-0.38 2.04,-0.68 5.78,-21.66 7.67,-9.07 18.1,-22.14 4.39,-5.51 11.48,-16.59 15.71,-22.52 14.48,-20.27 35.94,-25.26 38.59,-38.64 -6.53,-3.6 -5.57,0.62 -9.4,-2.63 4.7,-4.43 5.1,-4.65 9.26,-8.92 4.02,-4.13 6.35,-5.29 9.78,-9.38l3.89 6.52c0.58,1.53 0.88,4.74 1.23,7.13 9.43,-3.25 10.95,-7.3 23.53,-10.78 50.52,-14 27.99,-11.93 62.15,-37.68 -0.96,-8.2 -3.08,-2.45 -4.41,-11.79 17.21,-14.78 12.29,-1.49 16.63,-19.01 0.72,-2.89 1.66,-3.61 3,-7.41 -18.33,-15.16 -21.04,-18.97 0.68,-35.21 8.04,-6.01 14.57,-3.23 25.72,-6.17 33.88,-8.94 22.96,-10.81 39.98,-33.4 0.46,2.96 1.11,9.78 1.81,12.43 5.69,21.6 18.22,4.51 25.61,-4.51 24.53,3.38 4.05,15.18 26.26,19.8 -4.85,-21.76 -2.86,-6.67 -1.03,-27.35 2.45,-27.7 -24.32,-32.32 -10.6,-82.7 -0.62,-0.4 -1.48,-0.78 -1.98,-1.01 -0.49,-0.22 -1.35,-0.7 -1.95,-0.96l-12.16 -3.93 1 -13.99c-15.24,-8.76 -13.76,-4.74 -17.94,-24.52 6.62,-2.03 7.74,-2.96 13.14,-6.54 -3.24,-11.12 -0.68,-18.09 -8.11,-26.29 -9.48,-0.69 -14.32,5.61 -22.75,-2.09 -8.73,-7.96 -16.19,-16.53 -10.58,-26.17 5.13,-8.81 6.44,-4.91 7.85,-5.4 12.9,-4.55 4.65,-6.07 10.67,-18.85 32.78,-4.48 32.86,-3.13 33.37,-16.12l-13.15 0.3 -1.68 -11.04c-3.54,1.08 -7.68,3.19 -14.09,1.38 -12.98,-3.65 -0.88,1.25 -9.14,-7.88 -6.12,-6.76 -12.16,-8.31 -18.87,-14.26 -0.17,-21.84 7.08,-25.39 23.34,-34.55 -6.84,-7.63 -6.12,-0.55 -10.76,-9.21 6.45,-2.59 15.32,2.28 18.66,7.59 6.62,10.51 -0.54,11.27 11.33,16.87 3.88,-5.94 1.43,-3.28 -3.93,-11l15.92 0.99c-2.11,-4.42 -3.89,-5.75 -3.99,-5.92 -1.03,-1.94 -2.38,-0.9 -1.4,-4.9 9.27,-0.33 25,22.31 25.17,22.5 3.94,4.18 11.02,9.25 18.26,1.7 10.76,-11.23 -6.28,-3.83 3.27,-15.58 4.18,2.09 6.87,8.73 9.15,13.43 4.51,9.29 2.3,7.91 2.21,18.15 -0.13,16.23 4.81,9.03 4.6,18.21 -0.18,7.9 -5.93,3.57 -2.7,15.23 12.01,3.12 6.34,-1.98 22.86,1.35 34.74,7 14.98,1.68 44.26,1.6 20.22,-0.05 12.18,-2.41 23.29,-3.81 10.94,-1.38 20.3,4.87 30.53,5.1 5.27,0.11 1.4,-0.01 4.53,-0.9l5.43 -1.99c0.73,-0.2 1.38,-0.39 2.15,-0.55 17.25,-3.84 12.66,1.02 21.03,2.71 8.07,1.64 3.87,-5.8 13.41,4.48 -4.75,4.88 -6.45,4.02 -14.13,7.09 4.62,9.59 2.11,-4.09 8.25,6.74l-6.15 9.77c-1.44,3.91 -1.18,8.02 -1.72,11.66l-12.39 2.66 -0.24 16.03c-13.98,-3.64 -13.25,2.08 -24.67,6.32 -8.59,3.19 -4.57,-2.3 -12.58,5.36 -20,19.14 -9.02,26.09 -2.75,39.29 4.31,9.07 1.2,24.67 8.98,31.69 6.76,-10.04 -1.43,-4.95 2.53,-14.4 8.16,7.23 4.81,12.46 11.24,17.55 7.09,5.61 15.07,0.75 16.56,-6.45 2.36,-11.46 -5.09,-9.95 -0.37,-23.1 4.33,-12.06 4.67,-6.97 4.38,-23.12 9.92,3.05 5.2,-1.1 18.79,0.24 8.22,12.31 5.26,21.81 13.97,33.57 8.22,11.11 -1.57,14.21 2.95,24.86 8.46,19.92 9.9,0.7 11.35,40.85 0.31,8.65 5.07,10.35 5.55,16.47 0.64,7.95 -4.46,3.04 -1.01,13.16 9.07,-3.32 4.86,-2.59 9.12,-10.23l11.73 10.15 7.04 -13.39c8.6,-18.09 2.95,-32.65 -2.66,-50.75 -10.37,-33.42 17.5,-10.68 17.14,-34.52 -0.17,-11.26 -4.59,-9.33 -2.51,-21.21 6.22,-35.54 -3.76,-21.02 -8.51,-40.2 7.46,3.07 2.82,2.95 11.74,6.69 12.26,-6.36 5.66,-9.91 19.77,-5.02 9,3.12 13.09,7.31 22.01,5.69 3.77,-9.75 2.08,-12.09 6.12,-22.15 7.46,-18.58 17.35,-36.65 21.9,-55.2 -6.21,-8.1 -17.28,-10.92 -4.24,-25.4 6.85,-7.61 14.51,-9.55 17.34,-20.98 2.39,-9.66 6.32,-21.74 4.79,-31.25 -3.16,-19.78 -14.31,-24.8 8.35,-35.42 9.53,-4.46 9.96,-12.9 19.38,-19 11.5,-7.44 20.73,-22.94 30.73,-27.26 6.01,-2.6 23.87,-10.07 28.41,-10.86 12.34,5.03 10.69,14.63 29.74,13.01 4.32,-20.33 -36.82,-26.69 3.78,-51.77 3.39,-2.1 0.18,1.03 6.13,-2.89 -0.53,-9.6 -2.87,-11.21 -3.37,-23.36l-36.04 -4.29c-19.06,-8.08 6.84,-5.28 -7.83,-4.35 -12.08,4.55 -5.66,9.39 -21.83,5.8 -0.93,-17.3 25.46,-21.34 6.65,-45.18 -13.83,-0.82 -10.02,3.59 -17.71,11.61 -4.46,-7.26 -2.07,-2.86 -1.46,-6.37 1.65,-9.56 7.86,-6.1 12.45,-16.79 -5.34,-8.14 -2.85,-1.55 -10.56,-7.2 -9.2,-6.74 -10.81,-10.85 -33.71,4.5 -20.23,13.56 -1.94,25.58 -44.91,14.04 -14.37,-3.86 -7.81,-5.59 -17.95,-11.71l-23.42 20.54c-11.81,14.48 -9.02,20.22 -25.84,26.88l-18.18 3.8c-0.64,0.11 -2.34,0.56 -2.96,0.77 -13.73,4.67 -15.22,14.06 -12.86,26.44 -20.36,1.84 -14.63,3.05 -21.33,9.19l-3.84 3.23c-2.38,1.97 -4.18,2.62 -5.18,5.03 -2.71,6.49 7.53,0.65 -3.18,12.06 -4.07,4.34 -8.11,6.77 -12.25,10.17 -4.78,-1.91 -8.38,-3.84 -15.18,-4.7 -6.49,4.48 -6.95,10.91 -17.44,10.42 -6.93,-0.32 -10.56,-5.65 -19.69,-7.83l1.31 22.99c50.02,2.6 29.75,13.25 33.12,29.11 1.43,6.74 5.46,7.04 6.93,15.74 -11.24,0.11 -6.66,-2.91 -14.68,-3.06 -8.62,-0.17 -6.65,2.98 -12.74,5.73 -10.95,4.94 -2.41,-1.1 -11.92,0.07 -6.49,0.8 -0.8,2.57 -10.5,3.98 -6.63,0.96 -3.6,-1.42 -15.29,0.85 -18.73,3.63 -27.13,8.53 -40.12,-4.43l-13.61 6.4c-5.57,3.34 -3.02,2.43 -10.15,3.75 -10.87,2.03 -1.94,-0.25 -10.9,4.35 -6.19,3.18 -6.23,2.74 -13.58,4.09l-5.88 -4.12c-0.88,-0.59 -4.27,-2.69 -4.53,-2.88 -6.82,-4.89 -2.55,1.78 -6.52,-6.92l-5.65 4.65c-3.13,2.55 -1.48,1.78 -5.26,4.12 -0.56,-0.24 -18.74,-11.02 -19.53,-11.77 -6.36,-6.01 -7.98,-13.56 -7.67,-21.25 0.69,-16.75 -8.31,-6 -3.36,-19.6 3.41,-9.36 9.5,-10.85 3.69,-23.47 -4.44,-7.14 -15.64,-12.75 -24.43,-7.42l-25.09 12.43c2.47,7.6 1.44,3.29 5.77,8.95l2.11 2.56c-4.11,7.26 -9.36,12.12 -9.38,22.98 -0.01,6.42 -1.71,23.6 -0.83,25.8 3.58,8.93 9.36,4.56 10.71,22.66 0.87,11.75 -2.81,17.15 -7.65,22.85 -0.66,-0.13 -1.45,-0.62 -1.85,-0.77 -10.76,-4.07 -10.86,0.07 -21.6,1.19l-27.4 1.88c-8.6,-8.04 -3.81,-2.87 -10.12,-13.32 -7.96,5.45 -11.98,10 -22.24,10.58 -16.55,0.93 -14.21,-5.34 -21.15,-11.86l-30.73 5.4 -9.45 -18.55c-7.87,1.4 -21.06,5.29 -28.42,7.6 -11.74,-21.89 -25.6,-2.65 -35.93,-29.54 -4.35,-11.34 -5.93,-8.98 -18.42,-12.52 -11.65,-3.3 -10.08,-7.49 -25.92,-7.71l-3.39 4.53c-0.9,1.22 -1.79,7.29 -3.16,4.32 -0.16,-0.35 -0.63,0.98 -1.11,1.64l-20.18 -4.62c-4.5,5.33 -2.47,4.89 -8.69,10.17 -8.69,-1.7 -0.45,-2.14 -11.7,-4.06 -6.64,-1.13 -10.21,0.21 -16.23,-1.09 -7.47,-1.61 -6.8,-3.15 -9.29,-7.14 -13.3,-21.32 -6.71,0.72 -34.09,-15.16 -18.62,-10.8 -13.69,-7.37 -29.21,-3.59 -15.58,-23.11 -4.62,6.25 -24.81,-20.88 -4.49,-0.44 -0.23,-0.06 -8.09,2.55 -0.78,-25.06 -24.71,-18.06 -42.38,-25.75 -11.09,-4.83 -2,-0.92 -8.71,-12.81 -9.21,2.61 -4.54,8.11 -18.95,-1.05 -8.02,-5.09 -12.27,-5.75 -14.77,-13.62 5.51,-12.14 2.72,7.44 8.62,-12.04 1.37,-4.55 2.02,-12.7 2.58,-16.5 2.68,-18.2 1.29,-6.81 5.73,-14.85 2.99,-5.41 2.44,-8.41 3.79,-15.74l15.12 -0.24 -0.62 -11.73c14.46,-0.2 9.12,-0.09 16.36,-7.94 6.5,-7.04 10.37,-3.79 13.49,-11.83 -6.61,-3.78 -13.65,-4.88 -18.28,-10.06l-3.37 -4.32c-0.18,-0.84 -0.71,-1.03 -1.39,-2.14l-14.96 4.13c-5.3,-9 -2.26,-9.96 -15.29,-7.69l0.52 -13.44c-14.58,-6.89 -7.79,-7.03 -21.78,-13.06 -23.1,-9.95 -25.94,8.92 -39.16,-21.57l-12.83 -15.86c-4.79,6.82 -6.38,12.6 -12.65,17.43 -9.04,-11.4 -4.85,-4.83 -14.94,-12.14 1.46,-12.76 3.83,-6.46 9.29,-17.01 -5.12,-10.91 -5.21,-0.26 -4.3,-13.18 0.65,-9.29 3.74,-12.68 -6.34,-20.29l-14.33 -5.71 3.22 -23.51 10.04 -4.04c2.44,-1.54 1.81,-2.25 6.18,-5.88 6.78,10.1 -2.03,4.58 1.36,13.8l6.84 12.75c0.08,-0.3 0.18,1.03 0.46,1.47 7.76,-2.1 11.45,-5.06 16.56,-9.6 18.35,-16.33 20.93,-1.98 23.17,-7.71 0.21,-0.53 4.57,-4.6 5.24,-10.42 1.75,-15.11 -11.05,-17.56 -12.35,-22.12 -3.04,-10.66 16.54,-17.44 -11.42,-20.03 -0.53,-0.05 -1.25,-0.17 -1.81,-0.2l-14.65 2.07 -4.66 -18.7c3.91,-2.07 6.58,-0.54 9.75,-4.67 3.21,-4.16 3.27,-8.32 4.27,-13.75l-3.72 -2.17c-0.49,-0.29 -1.23,-0.72 -1.73,-1.02l-5.75 -3.72c9.21,-19.46 19.77,-0.45 38.54,-3.89 6.34,-16.18 0.09,-21.58 3.62,-32.95 15.77,-0.65 10.09,6.45 17.45,3.21z"/>
    </g>
    <path class="fil0" d="M1874.97 2801.99c-14.62,-24.07 10.81,-59.5 26.07,-95.97 43.29,-103.46 -88.55,-143.58 -152.89,-100.41 -96.17,64.54 -95.34,285.12 182.32,314.31 364.96,3.54 655.92,-244.02 891.4,-679.83l153.48 6.06c30.59,1.13 52.41,11.52 42.49,55.5l-43.34 330.36c-7.51,130.02 38.28,338.77 212.03,283.05 117.4,-37.65 225.54,-132.59 323.84,-288.26 -3.18,-51.52 -25.44,-62.35 -63.3,-39.89l-220.25 233.26c-38.8,37.52 -59.4,30.92 -60.7,-14.74 -0.34,-116.36 25.74,-242.62 62.42,-372.86 8.8,-41.41 3.63,-78.83 -19.94,-110.99l-94.54 -102.77c356.93,-63.35 552.55,-541.62 204.19,-665.09l34.99 -27.06c45.11,-34.88 19.14,-86.51 -33.94,-56.35l-61.32 34.84c-197.16,-86.24 -416.35,-87.33 -648.19,-39.45 -217.25,-237.52 -828.3,-7.61 -928.77,406.15 -18.47,76.1 45.02,80.14 65.15,12.89 89.73,-299.9 466.03,-493.45 723.34,-391.07 -438.57,206.58 -637.94,429.8 -614.72,668.5 13.47,138.55 109.58,237.91 251.49,246.73 107.29,6.67 230.01,-47.29 366.69,-156.05 263.6,-256.63 309.29,-493.4 192.51,-715.37 190.97,-19.73 376.19,-33.26 478.65,42.5 -391.83,138.53 -795.82,1494.49 -1269.16,1222zm1349.94 -1181.05c148.82,219.04 -77.63,560.94 -339.92,511.6 102.44,-176.32 200.6,-375.75 339.92,-511.6zm-668.55 -52.47c223.85,418.68 -389.76,782.61 -580.11,588.78 -124.25,-168.72 181.6,-507.66 580.11,-588.78z"/>
    <path class="fil5" d="M1840.29 2777.71c-14.62,-24.07 10.81,-59.5 26.07,-95.97 43.29,-103.46 -88.55,-143.58 -152.89,-100.41 -96.17,64.54 -95.34,285.12 182.32,314.31 364.96,3.54 655.92,-244.02 891.4,-679.83l153.48 6.06c30.59,1.13 52.41,11.52 42.49,55.5l-43.34 330.36c-7.51,130.02 38.28,338.77 212.03,283.05 117.4,-37.65 225.54,-132.59 323.84,-288.26 -3.18,-51.52 -25.44,-62.35 -63.3,-39.89l-220.25 233.26c-38.8,37.52 -59.4,30.92 -60.7,-14.74 -0.34,-116.36 25.74,-242.62 62.42,-372.86 8.8,-41.41 3.63,-78.83 -19.94,-110.99l-94.54 -102.77c356.93,-63.35 552.55,-541.62 204.19,-665.09l34.99 -27.06c45.11,-34.88 19.14,-86.51 -33.94,-56.35l-61.32 34.84c-197.16,-86.24 -416.35,-87.33 -648.19,-39.45 -217.25,-237.52 -828.3,-7.61 -928.77,406.15 -18.47,76.1 45.02,80.14 65.15,12.89 89.73,-299.9 466.03,-493.45 723.34,-391.07 -438.57,206.58 -637.94,429.8 -614.72,668.5 13.47,138.55 109.58,237.91 251.49,246.73 107.29,6.67 230.01,-47.29 366.69,-156.05 263.6,-256.63 309.29,-493.4 192.51,-715.37 190.97,-19.73 376.19,-33.26 478.65,42.5 -391.83,138.53 -795.82,1494.49 -1269.16,1222zm1349.94 -1181.05c148.82,219.04 -77.63,560.94 -339.92,511.6 102.44,-176.32 200.6,-375.75 339.92,-511.6zm-668.55 -52.47c223.85,418.68 -389.76,782.61 -580.11,588.78 -124.25,-168.72 181.6,-507.66 580.11,-588.78z"/>
   </g>
   <path class="fil6" d="M538.17 13.57l0 161.9 -15.38 0c-9.5,-37.38 -19.9,-64.22 -31.36,-80.5 -11.46,-16.43 -27.29,-29.4 -47.33,-39.04 -11.15,-5.28 -30.75,-7.99 -58.79,-7.99l-45.22 0 0 463.1c0,30.9 1.66,50.2 4.97,57.89 3.32,7.69 9.95,14.47 19.6,20.2 9.8,5.88 23.06,8.74 39.95,8.74l19.6 0 0 15.38 -312.04 0 0 -15.38 19.75 0c17.19,0 31.05,-3.17 41.6,-9.34 7.54,-4.22 13.57,-11.31 17.94,-21.41 3.17,-7.09 4.82,-25.78 4.82,-56.08l0 -463.1 -43.41 0c-40.1,0 -69.19,8.59 -87.43,25.63 -25.48,23.82 -41.46,57.73 -48.24,101.9l-17.19 0 0 -161.9 538.17 0zm232.45 0l0 239.99c22.61,-23.82 43.26,-40.7 62.11,-50.65 18.69,-9.8 38.29,-14.77 58.49,-14.77 25.93,0 47.94,7.39 66.33,22.01 18.24,14.78 30.45,32.11 36.48,52.01 6.03,19.75 9.05,53.37 9.05,100.4l0 161.15c0,31.66 2.86,51.41 8.74,59.25 5.88,7.84 17.79,12.81 35.58,14.92l0 15.38 -208.93 0 0 -15.38c14.62,-2.11 25.47,-7.99 32.86,-17.79 5.27,-7.69 7.84,-26.53 7.84,-56.38l0 -184.06c0,-34.07 -1.36,-55.48 -3.92,-64.22 -2.71,-8.75 -7.08,-15.38 -13.41,-20.35 -6.18,-4.83 -13.27,-7.24 -21.1,-7.24 -11.76,0 -23.07,4.07 -34.22,12.06 -11,8.14 -23.06,22.31 -35.87,42.66l0 221.14c0,29.55 2.26,48.09 6.63,55.48 5.43,10.1 16.88,16.28 34.07,18.69l0 15.38 -208.94 0 0 -15.38c17.34,-1.81 29.55,-7.39 36.94,-16.88 4.97,-6.48 7.39,-25.63 7.39,-57.28l0 -420.58c0,-31.51 -2.87,-51.25 -8.59,-58.94 -5.73,-7.84 -17.64,-12.81 -35.73,-15.22l0 -15.38 168.24 0zm683.94 378.07l-227.03 0c2.71,54.72 17.34,97.99 43.87,129.79 20.35,24.42 44.77,36.63 73.41,36.63 17.79,0 33.77,-4.97 48.24,-14.78 14.47,-9.8 30,-27.58 46.43,-53.06l15.07 9.95c-22.31,45.37 -47.19,77.63 -74.17,96.48 -27.14,18.84 -58.49,28.34 -94.22,28.34 -61.2,0 -107.63,-23.52 -139.14,-70.55 -25.33,-37.84 -37.99,-84.87 -37.99,-141.1 0,-68.74 18.69,-123.46 55.93,-164.16 37.24,-40.7 80.95,-61.05 131,-61.05 41.75,0 78.09,17.03 108.84,51.26 30.75,34.22 47.33,85.02 49.75,152.25zm-108.54 -28.95c0,-47.33 -2.56,-79.89 -7.68,-97.53 -5.28,-17.64 -13.27,-31.05 -24.12,-40.1 -6.18,-5.27 -14.47,-7.99 -24.87,-7.99 -15.22,0 -27.74,7.54 -37.53,22.46 -17.34,26.23 -26.08,62.11 -26.08,107.78l0 15.38 120.3 0zm680.77 79.6l-209.69 0 -26.08 58.49c-8.29,19.6 -12.36,35.88 -12.36,48.69 0,17.03 6.78,29.55 20.2,37.69 7.99,4.67 27.58,8.29 58.79,10.7l0 15.38 -199.14 0 0 -15.38c21.41,-3.32 39.19,-12.36 52.91,-26.98 13.87,-14.77 31.05,-45.22 51.25,-91.35l214.06 -477.72 8.44 0 216.02 490.98c20.65,47.03 37.53,76.73 50.8,88.94 10.1,9.34 24.12,14.62 42.51,16.13l0 15.38 -289.74 0 0 -15.38 11.91 0c23.22,0 39.65,-3.32 48.99,-9.95 6.48,-4.67 9.65,-11.61 9.65,-20.5 0,-5.42 -0.75,-11 -2.56,-16.73 -0.61,-2.56 -4.97,-13.87 -13.27,-33.62l-32.71 -74.77zm-14.17 -32.56l-89.4 -204.26 -91.5 204.26 180.9 0zm493.69 -209.84l0.3 94.06c27.14,-42.66 51.1,-71 71.6,-84.87 20.5,-14.02 40.25,-20.95 59.24,-20.95 16.44,0 29.7,5.12 39.5,15.22 9.8,10.1 14.78,24.42 14.78,42.97 0,19.6 -4.83,34.97 -14.32,45.82 -9.5,10.85 -20.95,16.28 -34.52,16.28 -15.53,0 -28.94,-4.97 -40.25,-14.92 -11.46,-10.1 -18.24,-15.68 -20.2,-16.73 -3.02,-1.81 -6.33,-2.71 -10.1,-2.71 -8.44,0 -16.58,3.17 -24.12,9.65 -12.06,10.1 -21.11,24.42 -27.29,42.96 -9.35,28.49 -14.02,60 -14.02,94.52l0.3 94.82 0 24.87c0,16.88 1.05,27.74 3.17,32.56 3.46,7.99 8.74,13.87 15.68,17.49 7.09,3.77 18.84,6.03 35.43,6.93l0 15.38 -224.31 0 0 -15.38c18.09,-1.51 30.3,-6.48 36.63,-14.77 6.33,-8.44 9.5,-30.6 9.5,-66.63l0 -228.84c0,-23.97 -1.21,-39.19 -3.62,-45.82 -2.87,-8.44 -7.24,-14.47 -12.81,-18.39 -5.58,-3.92 -15.53,-6.63 -29.7,-8.14l0 -15.38 169.14 0zm458.42 351.84c-50.35,44.62 -95.72,66.93 -135.67,66.93 -23.67,0 -43.26,-7.69 -58.94,-23.22 -15.53,-15.38 -23.37,-34.82 -23.37,-58.04 0,-31.51 13.57,-59.85 40.7,-85.02 27.13,-25.17 86.23,-58.64 177.28,-100.4l0 -41.46c0,-31.05 -1.66,-50.65 -5.13,-58.79 -3.32,-7.99 -9.8,-15.07 -19.29,-21.11 -9.5,-6.03 -20.2,-9.05 -31.96,-9.05 -19.29,0 -35.12,4.22 -47.48,12.82 -7.69,5.27 -11.46,11.46 -11.46,18.54 0,6.18 4.07,13.72 12.36,22.92 11.15,12.66 16.73,24.87 16.73,36.63 0,14.32 -5.27,26.68 -16.13,36.78 -10.7,10.1 -24.72,15.22 -42.06,15.22 -18.54,0 -34.07,-5.58 -46.58,-16.73 -12.51,-11.15 -18.85,-24.27 -18.85,-39.19 0,-21.25 8.44,-41.46 25.17,-60.75 16.88,-19.14 40.25,-33.92 70.25,-44.32 30.15,-10.25 61.35,-15.38 93.76,-15.38 39.19,0 70.25,8.29 93.01,24.87 22.91,16.58 37.68,34.52 44.47,53.97 4.07,12.36 6.18,40.7 6.18,85.02l0 159.94c0,18.69 0.75,30.6 2.26,35.42 1.51,4.83 3.62,8.44 6.63,10.85 3.02,2.26 6.33,3.47 10.1,3.47 7.84,0 15.68,-5.28 23.82,-15.83l13.27 10.25c-14.78,21.86 -30,37.84 -45.83,47.63 -15.68,9.95 -33.62,14.92 -53.67,14.92 -23.51,0 -42.06,-5.58 -55.32,-16.58 -13.27,-11.16 -21.26,-27.89 -24.27,-50.35zm0 -32.56l0 -137.48c-35.58,20.95 -62.11,43.26 -79.6,67.08 -11.46,15.83 -17.19,31.96 -17.19,48.09 0,13.56 4.83,25.48 14.62,35.73 7.39,7.99 17.64,11.91 30.9,11.91 14.78,0 31.81,-8.44 51.26,-25.32zm393.45 -319.28l0 53.36c21.1,-22.76 41.46,-39.19 60.9,-49.6 19.45,-10.4 40.25,-15.53 62.56,-15.53 26.83,0 48.99,7.39 66.63,22.31 17.64,14.92 29.39,33.46 35.27,55.48 4.68,16.88 7.09,49.14 7.09,96.78l0 161c0,31.81 2.86,51.56 8.59,59.4 5.73,7.84 17.63,12.66 35.73,14.77l0 15.38 -208.93 0 0 -15.38c15.68,-2.11 26.83,-8.59 33.61,-19.44 4.68,-7.39 7.09,-25.63 7.09,-54.72l0 -183.91c0,-33.92 -1.36,-55.33 -3.92,-64.07 -2.71,-8.89 -7.08,-15.68 -13.41,-20.65 -6.33,-4.83 -13.27,-7.24 -20.95,-7.24 -25.17,0 -48.54,17.79 -70.25,53.36l0 222.5c0,30.9 2.86,50.5 8.59,58.64 5.73,8.29 16.43,13.42 32.11,15.53l0 15.38 -208.94 0 0 -15.38c17.34,-1.81 29.55,-7.39 36.94,-16.73 4.97,-6.49 7.39,-25.63 7.39,-57.44l0 -234.26c0,-31.51 -2.87,-51.25 -8.59,-58.94 -5.73,-7.84 -17.64,-12.81 -35.73,-15.22l0 -15.38 168.24 0zm503.04 -186.32l0 239.99c22.61,-23.82 43.26,-40.7 62.11,-50.65 18.69,-9.8 38.29,-14.77 58.49,-14.77 25.93,0 47.94,7.39 66.33,22.01 18.24,14.78 30.45,32.11 36.48,52.01 6.03,19.75 9.05,53.37 9.05,100.4l0 161.15c0,31.66 2.86,51.41 8.74,59.25 5.88,7.84 17.79,12.81 35.58,14.92l0 15.38 -208.93 0 0 -15.38c14.62,-2.11 25.47,-7.99 32.86,-17.79 5.27,-7.69 7.84,-26.53 7.84,-56.38l0 -184.06c0,-34.07 -1.36,-55.48 -3.92,-64.22 -2.71,-8.75 -7.08,-15.38 -13.41,-20.35 -6.18,-4.83 -13.27,-7.24 -21.1,-7.24 -11.76,0 -23.07,4.07 -34.22,12.06 -11,8.14 -23.06,22.31 -35.87,42.66l0 221.14c0,29.55 2.26,48.09 6.63,55.48 5.43,10.1 16.88,16.28 34.07,18.69l0 15.38 -208.94 0 0 -15.38c17.34,-1.81 29.55,-7.39 36.94,-16.88 4.97,-6.48 7.39,-25.63 7.39,-57.28l0 -420.58c0,-31.51 -2.87,-51.25 -8.59,-58.94 -5.73,-7.84 -17.64,-12.81 -35.73,-15.22l0 -15.38 168.24 0zm561.83 538.16c-50.35,44.62 -95.72,66.93 -135.67,66.93 -23.67,0 -43.26,-7.69 -58.94,-23.22 -15.53,-15.38 -23.37,-34.82 -23.37,-58.04 0,-31.51 13.57,-59.85 40.7,-85.02 27.13,-25.17 86.23,-58.64 177.28,-100.4l0 -41.46c0,-31.05 -1.66,-50.65 -5.13,-58.79 -3.32,-7.99 -9.8,-15.07 -19.29,-21.11 -9.5,-6.03 -20.2,-9.05 -31.96,-9.05 -19.29,0 -35.12,4.22 -47.48,12.82 -7.69,5.27 -11.46,11.46 -11.46,18.54 0,6.18 4.07,13.72 12.36,22.92 11.15,12.66 16.73,24.87 16.73,36.63 0,14.32 -5.27,26.68 -16.13,36.78 -10.7,10.1 -24.72,15.22 -42.06,15.22 -18.54,0 -34.07,-5.58 -46.58,-16.73 -12.51,-11.15 -18.85,-24.27 -18.85,-39.19 0,-21.25 8.44,-41.46 25.17,-60.75 16.88,-19.14 40.25,-33.92 70.25,-44.32 30.15,-10.25 61.35,-15.38 93.76,-15.38 39.19,0 70.25,8.29 93.01,24.87 22.91,16.58 37.68,34.52 44.47,53.97 4.07,12.36 6.18,40.7 6.18,85.02l0 159.94c0,18.69 0.75,30.6 2.26,35.42 1.51,4.83 3.62,8.44 6.63,10.85 3.02,2.26 6.33,3.47 10.1,3.47 7.84,0 15.68,-5.28 23.82,-15.83l13.27 10.25c-14.78,21.86 -30,37.84 -45.83,47.63 -15.68,9.95 -33.62,14.92 -53.67,14.92 -23.51,0 -42.06,-5.58 -55.32,-16.58 -13.27,-11.16 -21.26,-27.89 -24.27,-50.35zm0 -32.56l0 -137.48c-35.58,20.95 -62.11,43.26 -79.6,67.08 -11.46,15.83 -17.19,31.96 -17.19,48.09 0,13.56 4.83,25.48 14.62,35.73 7.39,7.99 17.64,11.91 30.9,11.91 14.78,0 31.81,-8.44 51.26,-25.32zm484.8 -330.14l6.33 141.1 -15.38 0c-17.79,-41.76 -36.18,-70.25 -55.32,-85.62 -19,-15.23 -37.99,-22.92 -56.98,-22.92 -11.91,0 -22.16,4.07 -30.6,12.06 -8.44,8.14 -12.66,17.49 -12.66,28.04 0,7.84 2.86,15.53 8.74,22.92 9.35,12.06 35.58,32.56 78.54,61.8 43.11,29.25 71.31,54.12 85.02,74.47 13.57,20.35 20.35,43.26 20.35,68.44 0,22.91 -5.73,45.38 -17.19,67.38 -11.31,22.01 -27.44,38.89 -48.24,50.65 -20.8,11.76 -43.72,17.64 -68.89,17.64 -19.6,0 -45.83,-6.18 -78.54,-18.69 -8.9,-3.17 -14.78,-4.83 -18.09,-4.83 -9.65,0 -17.64,7.54 -24.12,22.61l-15.38 0 -7.24 -148.34 15.38 0c13.12,38.59 31.21,67.53 54.27,86.83 22.91,19.29 44.62,28.94 65.12,28.94 14.17,0 25.63,-4.37 34.52,-12.96 8.89,-8.74 13.41,-19.14 13.41,-31.51 0,-14.17 -4.37,-26.23 -13.12,-36.63 -8.89,-10.25 -28.49,-25.78 -58.94,-46.58 -44.92,-31.2 -73.87,-54.87 -87.13,-71.3 -19.29,-24.12 -28.95,-50.65 -28.95,-79.74 0,-31.81 10.85,-60.45 32.71,-86.08 21.86,-25.78 53.52,-38.59 94.82,-38.59 22.31,0 43.87,5.58 64.67,16.73 7.84,4.52 14.32,6.78 19.3,6.78 5.27,0 9.65,-1.21 12.81,-3.47 3.17,-2.26 8.29,-8.59 15.37,-19.14l15.38 0zm143.96 104.92l0 -18.99c33.92,-14.78 58.49,-33.92 73.71,-57.43 15.38,-23.52 23.07,-47.64 23.07,-72.51 0,-4.67 -1.05,-8.29 -3.02,-11 -2.11,-2.41 -4.07,-3.46 -6.18,-3.46 -1.81,0 -4.37,1.05 -7.99,3.01 -8.44,4.97 -18.99,7.54 -31.65,7.54 -17.34,0 -32.26,-6.78 -45.07,-20.35 -12.81,-13.41 -19.14,-29.39 -19.14,-47.48 0,-19.45 7.39,-36.48 22.01,-51.26 14.78,-14.62 32.56,-22.01 53.52,-22.01 25.32,0 46.88,9.8 64.82,29.4 17.94,19.6 26.98,46.43 26.98,80.5 0,42.06 -12.66,79.45 -38.14,112.15 -25.32,32.56 -63.01,56.53 -112.91,71.91z"/>
   <g>
    <path class="fil7" d="M1666.07 4375.47l0 -273.4 192.86 61.34 0 46.2 -140.1 -44.55 0 60.71 130.27 41.43 0 46.2 -130.27 -41.43 0 74.08 145.19 46.17 0 46.2 -197.96 -62.95zm229.41 -12.8l51.31 10.97c3.1,18.99 9.28,34.13 18.68,45.58 9.4,11.46 22.07,19.69 38.03,24.76 16.86,5.36 29.59,5.66 38.15,0.87 8.55,-4.79 12.86,-12.2 12.86,-22.26 0,-6.49 -1.82,-12.54 -5.4,-18.26 -3.58,-5.66 -9.88,-11.61 -18.86,-17.77 -6.12,-4.24 -20.07,-12.62 -41.91,-25.29 -28.08,-16.31 -47.79,-31.62 -59.13,-45.98 -15.95,-20.16 -23.9,-41.08 -23.9,-62.78 0,-13.94 3.76,-25.85 11.22,-35.63 7.52,-9.77 18.31,-15.56 32.45,-17.43 14.13,-1.87 31.12,0.35 51.13,6.71 32.57,10.35 57.13,25.74 73.57,46.18 16.5,20.45 25.11,43.43 25.96,69.09l-52.77 -14.87c-2.24,-14.85 -7.04,-26.49 -14.37,-35 -7.34,-8.5 -18.37,-15.13 -33.05,-19.8 -15.16,-4.82 -27.05,-5.3 -35.6,-1.4 -5.52,2.51 -8.31,7.29 -8.31,14.41 0,6.49 2.61,12.86 7.82,19.1 6.61,8.02 22.68,19.24 48.22,33.72 25.53,14.42 44.39,27.04 56.58,37.66 12.25,10.71 21.83,22.98 28.75,36.95 6.91,13.97 10.37,29.58 10.37,46.83 0,15.66 -4.13,29.05 -12.43,40.09 -8.31,11.04 -20.02,17.5 -35.18,19.3 -15.16,1.86 -34.09,-0.85 -56.71,-8.05 -32.93,-10.47 -58.22,-26.47 -75.87,-48.05 -17.65,-21.52 -28.14,-48.09 -31.6,-79.67zm315.66 187.99l0 -227.2 -77.15 -24.54 0 -46.2 206.69 65.73 0 46.2 -76.78 -24.42 0 227.2 -52.76 -16.78zm163.2 -223.3l95.94 30.51c21.65,6.89 38.15,13.85 49.49,20.96 15.22,9.55 28.32,22.12 39.18,37.66 10.92,15.5 19.17,32.89 24.87,52.2 5.64,19.23 8.49,41.71 8.49,67.3 0,22.53 -2.67,41.03 -8.01,55.62 -6.49,17.86 -15.77,31.01 -27.84,39.45 -9.1,6.47 -21.41,9.8 -36.87,10.1 -11.59,0.2 -27.05,-2.81 -46.46,-8.98l-98.8 -31.42 0 -273.4zm52.76 62.98l0 181 39.12 12.44c14.61,4.65 25.17,7.11 31.65,7.46 8.55,0.49 15.59,-1.09 21.17,-4.66 5.64,-3.56 10.19,-10.89 13.71,-21.99 3.58,-11.08 5.34,-27.26 5.34,-48.39 0,-21.13 -1.76,-37.85 -5.34,-50.32 -3.52,-12.44 -8.49,-22.81 -14.86,-31.2 -6.37,-8.33 -14.43,-15.22 -24.25,-20.56 -7.28,-4.04 -21.66,-9.5 -43,-16.29l-23.53 -7.48z"/>
    <path class="fil7" d="M2885.01 4581.2l-49.85 15.85 0 -197.92c-18.2,23.73 -39.66,43.86 -64.41,60.32l0 -47.73c13.05,-8.6 27.17,-21.56 42.4,-38.94 15.29,-17.33 25.72,-35.22 31.41,-53.65l40.45 -12.86 0 274.93zm77.94 -88.39l48.4 -20.99c1.15,10.01 4.25,16.73 9.16,20.13 4.92,3.46 11.46,3.87 19.53,1.3 10.25,-3.26 18.92,-11.05 26.08,-23.32 7.15,-12.27 11.7,-34.46 13.71,-66.47 -12.56,19.27 -28.2,31.88 -47.07,37.88 -20.43,6.5 -38.14,3.86 -53,-8.02 -14.86,-11.89 -22.26,-31.11 -22.26,-57.71 0,-27.75 7.83,-52.57 23.53,-74.5 15.7,-21.98 35.72,-36.81 59.98,-44.53 26.38,-8.39 48.09,-4.54 65.02,11.53 16.92,16.13 25.41,48.75 25.41,98.01 0,50.02 -8.79,88.96 -26.38,116.71 -17.59,27.8 -40.51,46.17 -68.78,55.16 -20.32,6.46 -36.69,5.94 -49.25,-1.52 -12.49,-7.42 -20.56,-21.97 -24.08,-43.64zm112.44 -150.44c0,-16.86 -3.7,-28.8 -11.09,-35.74 -7.34,-6.96 -15.89,-8.88 -25.59,-5.8 -9.22,2.93 -16.86,9.18 -22.92,18.74 -6.13,9.59 -9.16,23.02 -9.16,40.33 0,17.63 3.34,29.49 9.95,35.66 6.61,6.11 14.85,7.62 24.8,4.46 9.58,-3.05 17.65,-9.56 24.2,-19.6 6.55,-10.04 9.82,-22.73 9.82,-38.07zm90.32 83.01l49.86 -21.26c1.45,11.37 5.64,19.46 12.61,24.18 7.04,4.7 15.1,5.57 24.26,2.66 10.43,-3.32 19.29,-10.59 26.5,-21.86 7.22,-11.26 10.85,-25.92 10.85,-43.93 0,-16.93 -3.58,-28.45 -10.8,-34.62 -7.16,-6.19 -16.5,-7.42 -28.02,-3.75 -14.37,4.57 -27.29,15.3 -38.69,32.16l-40.39 6.74 25.47 -150.15 132.09 -42.01 0 48.88 -94.19 29.95 -7.88 49.03c11.1,-9.32 22.5,-15.88 34.14,-19.58 22.2,-7.06 41,-4.58 56.4,7.52 15.46,12.01 23.16,31.58 23.16,58.69 0,22.59 -6.24,44.69 -18.68,66.4 -16.98,29.59 -40.52,49.16 -70.6,58.72 -24.07,7.66 -43.72,7.1 -58.89,-1.64 -15.22,-8.78 -24.26,-24.1 -27.23,-46.14zm242.36 -156.02c-12.86,-1.64 -22.26,-6.47 -28.08,-14.68 -5.88,-8.12 -8.79,-18.2 -8.79,-30.11 0,-20.43 6.79,-39.45 20.32,-57.06 13.52,-17.61 32.81,-30.42 57.73,-38.35 24.75,-7.87 43.91,-7.28 57.56,1.68 13.65,8.96 20.5,23.64 20.5,44.07 0,12.66 -3.16,24.93 -9.47,36.87 -6.24,11.85 -15.1,22.24 -26.5,31.08 14.49,1.5 25.47,6.92 33.05,16.22 7.52,9.38 11.28,21.68 11.28,37.02 0,25.33 -7.64,48.32 -22.99,69.04 -15.28,20.71 -35.66,35.08 -61.13,43.18 -23.65,7.52 -43.3,7.21 -59.07,-0.88 -18.56,-9.5 -27.84,-27.8 -27.84,-54.72 0,-14.83 3.52,-29.57 10.49,-44.2 6.98,-14.63 17.95,-27.66 32.93,-39.18zm10.43 -56.01c0,10.44 2.79,17.76 8.37,21.84 5.64,4.06 13.1,4.62 22.38,1.66 9.46,-3.01 16.98,-8.39 22.62,-16.1 5.64,-7.71 8.49,-16.83 8.49,-27.27 0,-9.86 -2.79,-16.87 -8.37,-21.01 -5.64,-4.13 -13.05,-4.76 -22.2,-1.85 -9.58,3.05 -17.16,8.45 -22.81,16.22 -5.64,7.78 -8.49,16.64 -8.49,26.5zm-4.73 118.73c0,14.57 3.52,24.79 10.55,30.7 7.04,5.91 15.77,7.2 26.26,3.87 10.31,-3.28 18.8,-9.92 25.54,-19.89 6.73,-9.97 10.07,-22.36 10.07,-37.12 0,-12.92 -3.4,-22.22 -10.25,-27.86 -6.85,-5.65 -15.52,-6.84 -26.02,-3.5 -12.19,3.88 -21.23,11.21 -27.23,22.02 -5.94,10.8 -8.91,21.35 -8.91,31.79z"/>
   </g>
  </g>
 </g>
</svg>
