<?xml version="1.0" standalone="no"?>
<!DOCTYPE svg PUBLIC "-//W3C//DTD SVG 20010904//EN"
 "http://www.w3.org/TR/2001/REC-SVG-20010904/DTD/svg10.dtd">
<svg version="1.0" xmlns="http://www.w3.org/2000/svg"
 width="520.000000pt" height="437.000000pt" viewBox="0 0 520.000000 437.000000"
 preserveAspectRatio="xMidYMid meet">

<g transform="translate(0.000000,437.000000) scale(0.100000,-0.100000)"
fill="#000000" stroke="none">
<path d="M970 3928 c1 -37 2 -40 12 -23 15 26 28 35 56 35 22 0 22 -2 22 -125
0 -121 -1 -126 -22 -135 -17 -6 -1 -9 57 -9 58 0 74 3 58 9 -22 9 -23 14 -23
135 l0 126 32 -3 c22 -2 36 -10 44 -26 19 -39 24 -37 24 11 l0 47 -130 0 -130
0 0 -42z"/>
<path d="M1250 3960 c0 -5 9 -10 20 -10 19 0 20 -7 20 -130 0 -126 -1 -131
-22 -140 -17 -6 0 -9 57 -8 44 0 72 2 63 5 -15 4 -18 16 -18 69 l0 64 50 0 51
0 -3 -57 c-3 -50 -6 -59 -28 -70 -22 -11 -16 -13 55 -12 44 1 72 3 63 6 -16 4
-18 19 -18 139 0 112 2 134 15 134 8 0 15 5 15 10 0 6 -32 10 -75 10 -41 0
-75 -4 -75 -9 0 -5 10 -11 23 -13 20 -3 22 -9 22 -58 l0 -55 -47 -3 -48 -3 0
60 c0 48 3 61 15 61 8 0 15 5 15 10 0 6 -32 10 -75 10 -43 0 -75 -4 -75 -10z"/>
<path d="M1590 3960 c0 -5 9 -10 19 -10 27 0 31 -18 31 -134 0 -103 -7 -127
-40 -139 -8 -3 44 -6 117 -6 l131 -1 7 41 c7 39 -3 68 -13 40 -12 -35 -51 -61
-92 -61 l-40 0 0 60 c0 33 3 60 8 60 15 0 31 -16 41 -40 8 -20 10 -9 9 50 0
41 -3 66 -5 55 -7 -27 -23 -45 -39 -45 -10 0 -14 15 -14 55 l0 55 39 0 c41 0
71 -20 71 -46 0 -8 5 -14 10 -14 6 0 10 20 10 45 l0 45 -125 0 c-77 0 -125 -4
-125 -10z"/>
<path d="M2113 3949 c-6 -13 -35 -73 -63 -134 -29 -60 -59 -118 -68 -127 -14
-17 -12 -18 34 -17 27 1 41 3 31 6 -14 4 -17 13 -15 36 3 31 4 32 57 35 58 3
71 -5 71 -45 0 -12 -8 -23 -17 -26 -10 -3 54 -5 142 -5 105 -1 152 2 138 8
-20 8 -23 17 -23 65 0 30 4 55 8 55 5 0 29 -29 55 -65 l47 -65 97 1 c69 0 91
3 76 9 -23 9 -28 25 -17 54 5 12 20 16 60 16 49 0 55 -2 64 -26 14 -36 13 -42
-12 -47 -13 -2 38 -5 112 -6 124 -1 133 0 112 15 -20 14 -22 23 -22 105 0 49
4 89 8 89 5 0 24 -19 42 -42 19 -24 39 -50 47 -58 7 -8 33 -39 58 -68 l45 -53
0 136 c0 124 2 136 20 147 32 20 24 28 -30 28 -27 0 -50 -4 -50 -10 0 -5 7
-10 15 -10 8 0 19 -9 25 -19 11 -22 14 -141 3 -140 -5 0 -38 40 -76 90 l-68
89 -57 0 -57 0 28 -23 28 -22 -3 -120 -3 -120 -32 -3 c-40 -4 -48 8 -108 159
-27 66 -52 118 -57 117 -6 -2 -38 -64 -72 -138 -55 -119 -65 -135 -86 -135
-19 0 -34 14 -65 58 l-40 59 29 23 c39 31 40 76 2 113 -25 25 -33 27 -131 30
-71 3 -105 0 -105 -7 0 -6 7 -11 15 -11 13 0 15 -22 15 -135 l0 -135 -27 0
c-16 0 -33 4 -40 8 -9 5 -54 97 -61 122 -5 20 -26 73 -45 114 -22 47 -23 48
-34 25z m352 -25 c10 -11 15 -29 13 -53 -3 -34 -5 -36 -40 -39 l-38 -3 0 55
c0 53 1 56 24 56 14 0 32 -7 41 -16z m-335 -146 c0 -5 -16 -8 -35 -8 -39 0
-42 7 -19 52 l17 32 18 -35 c10 -19 18 -37 19 -41z m614 48 c3 -13 9 -31 12
-40 5 -13 -1 -16 -30 -16 -41 0 -41 0 -20 46 19 40 30 43 38 10z"/>
<path d="M3230 3965 c0 -3 11 -10 25 -15 l26 -10 -3 -127 c-3 -126 -3 -127
-28 -134 -14 -4 14 -7 65 -7 51 0 79 3 65 7 -23 6 -25 12 -28 69 l-3 62 51 0
50 0 0 -60 c0 -54 -3 -62 -22 -70 -16 -6 21 -9 112 -9 105 0 130 2 115 11 -11
6 -21 12 -23 13 -1 1 2 14 7 29 9 23 16 26 60 26 39 0 53 -4 61 -19 15 -29 12
-49 -7 -54 -10 -3 18 -5 62 -5 44 0 73 2 64 5 -15 4 -63 98 -119 236 -13 31
-27 57 -30 57 -4 0 -15 -21 -25 -47 -10 -27 -22 -52 -26 -58 -5 -5 -9 -15 -9
-22 0 -7 -16 -46 -36 -88 -34 -72 -37 -75 -70 -75 l-34 0 0 135 c0 111 3 135
14 135 8 0 18 5 21 10 4 6 -23 10 -74 10 -77 0 -106 -11 -60 -23 18 -5 20 -12
17 -59 l-3 -53 -45 0 -45 0 0 55 c0 49 2 55 23 58 12 2 22 8 22 13 0 5 -38 9
-85 9 -47 0 -85 -2 -85 -5z m506 -192 c-2 -2 -19 -3 -38 -1 l-34 3 19 44 19
44 19 -43 c11 -24 17 -45 15 -47z"/>
<path d="M3937 3940 c-15 -17 -27 -42 -27 -54 0 -30 34 -72 73 -92 93 -47 106
-114 22 -114 -31 0 -67 31 -81 71 -12 33 -12 33 -13 -30 -1 -54 1 -62 14 -51
11 9 22 9 50 -1 30 -11 42 -11 78 1 34 12 44 22 53 50 18 55 0 86 -76 129 -51
29 -65 42 -65 60 0 56 70 52 111 -7 l26 -37 -6 34 c-3 18 -6 39 -6 45 0 6 -8
13 -17 14 -10 1 -39 5 -64 8 -42 5 -48 3 -72 -26z"/>
<path d="M4172 3949 c-16 -25 -1 -49 29 -49 24 0 24 -11 -2 -44 -11 -14 -16
-26 -10 -26 20 0 55 50 55 79 0 56 -47 81 -72 40z"/>
<path d="M2308 3025 c-4 -4 -15 -8 -25 -9 -29 -3 -99 -25 -130 -41 -15 -8 -34
-15 -42 -15 -7 0 -30 -13 -51 -30 -21 -16 -43 -30 -48 -30 -17 0 -147 -132
-176 -179 -31 -48 -66 -149 -59 -168 8 -20 30 -22 46 -5 8 9 32 50 53 91 49
97 142 195 230 244 37 21 79 40 93 43 14 3 36 10 47 16 21 10 57 8 173 -9 61
-9 58 -16 -19 -48 -25 -10 -57 -27 -72 -37 -14 -10 -31 -18 -37 -18 -6 0 -11
-4 -11 -10 0 -5 -5 -10 -11 -10 -6 0 -27 -12 -47 -27 -20 -16 -41 -31 -47 -35
-47 -33 -103 -92 -145 -154 -27 -40 -50 -78 -50 -84 0 -6 -4 -18 -9 -28 -19
-35 -23 -59 -21 -131 3 -131 37 -176 163 -216 46 -14 63 -16 83 -6 14 6 35 11
47 11 12 1 40 9 62 20 22 11 45 19 50 20 15 0 120 74 153 106 72 74 172 241
172 290 0 11 5 25 11 31 7 7 12 45 12 90 -1 75 -12 118 -45 165 -7 9 -9 21 -4
25 4 4 80 8 169 7 134 0 169 -4 200 -18 20 -10 37 -21 37 -25 -1 -3 -26 -24
-57 -46 -31 -22 -80 -67 -109 -100 -53 -60 -74 -89 -162 -220 -26 -38 -49 -72
-52 -75 -7 -7 -20 -29 -73 -120 -67 -117 -69 -119 -126 -204 -97 -145 -158
-215 -232 -266 -90 -62 -197 -81 -261 -48 -20 9 -25 63 -8 73 17 11 12 80 -7
97 -35 29 -78 38 -119 25 -24 -9 -54 -66 -54 -106 0 -71 67 -154 136 -167 48
-9 220 1 236 13 7 6 27 13 43 17 47 11 113 44 200 101 109 71 193 166 294 330
67 108 75 115 141 115 31 0 68 -6 84 -12 30 -14 30 -21 7 -148 -13 -74 -14
-287 -1 -295 6 -4 8 -11 5 -16 -7 -10 28 -64 60 -92 16 -15 32 -18 81 -15 33
2 67 9 75 16 8 6 39 32 69 56 54 42 107 101 145 159 13 21 15 30 6 41 -17 21
-66 -6 -95 -52 -39 -61 -141 -152 -170 -152 -24 0 -26 3 -25 43 0 23 5 65 10
92 51 252 50 272 -6 335 -25 28 -45 55 -45 60 0 4 15 12 33 15 54 12 109 46
175 110 123 117 163 264 97 351 -37 49 -63 74 -97 96 l-27 18 25 25 c21 21 23
29 14 40 -16 19 -40 19 -69 -1 -16 -11 -34 -15 -59 -11 -57 9 -66 12 -82 22
-9 6 -113 10 -246 10 -156 0 -235 4 -245 11 -40 32 -89 47 -169 51 -47 3 -88
2 -92 -2z m268 -212 c4 -27 11 -59 16 -72 10 -27 -14 -156 -40 -210 -26 -55
-121 -143 -187 -175 -69 -33 -159 -48 -227 -40 -65 9 -120 56 -124 107 -2 20
1 39 6 42 6 3 10 13 10 21 0 8 10 29 23 47 26 37 153 163 194 192 33 24 153
95 160 95 3 0 19 6 36 14 48 21 59 24 94 25 30 1 32 -1 39 -46z m588 -36 c18
-47 22 -142 6 -152 -5 -3 -10 -16 -10 -28 -1 -22 -20 -66 -54 -122 -22 -36
-98 -90 -141 -100 -61 -14 -103 -17 -109 -7 -6 10 34 90 80 164 13 21 24 40
24 43 0 4 15 27 33 53 17 26 34 52 37 59 7 17 103 132 111 132 4 1 14 -18 23
-42z"/>
<path d="M1512 2970 c-7 -12 -8 -21 -2 -25 6 -3 10 2 10 11 0 16 2 16 20 -1
13 -12 18 -26 14 -39 -3 -12 -2 -17 3 -11 5 6 12 13 16 16 4 3 -6 20 -21 37
-26 29 -28 30 -40 12z"/>
<path d="M3703 2959 c-30 -36 -29 -47 1 -14 21 23 25 24 37 9 11 -14 11 -18
-4 -29 -9 -7 -17 -17 -17 -22 0 -5 -11 -16 -25 -23 -13 -7 -22 -17 -19 -22 7
-10 84 60 84 75 0 5 -8 19 -17 31 l-18 22 -22 -27z"/>
<path d="M1490 2932 c1 -10 139 -159 140 -150 0 4 -10 16 -22 28 -17 16 -19
23 -10 32 9 9 12 9 12 -2 1 -11 4 -10 11 3 8 14 8 22 -1 30 -8 9 -10 8 -4 -6
5 -13 2 -16 -10 -11 -9 4 -16 1 -16 -6 0 -12 -69 59 -70 71 0 4 -7 9 -15 13
-8 3 -15 2 -15 -2z"/>
<path d="M3689 2903 c-13 -16 -12 -17 4 -4 16 13 21 21 13 21 -2 0 -10 -8 -17
-17z"/>
<path d="M1575 2900 c-4 -6 -3 -16 3 -22 6 -6 12 -6 17 2 4 6 3 16 -3 22 -6 6
-12 6 -17 -2z"/>
<path d="M3657 2903 c-4 -3 -7 -11 -7 -17 0 -6 5 -5 12 2 6 6 9 14 7 17 -3 3
-9 2 -12 -2z"/>
<path d="M3625 2870 c-4 -7 -2 -17 4 -23 8 -8 11 -7 11 3 0 12 2 12 13 1 10
-11 9 -14 -1 -18 -6 -3 -9 -10 -5 -16 4 -6 0 -8 -10 -4 -11 4 -14 2 -10 -9 3
-7 1 -14 -5 -14 -5 0 -12 7 -16 15 -7 19 -33 9 -39 -15 -3 -13 0 -17 9 -13 8
3 14 12 14 21 0 12 4 11 16 -6 15 -22 15 -24 -2 -37 -11 -8 -28 -15 -39 -15
-11 -1 -14 -4 -7 -7 6 -2 12 -9 12 -14 0 -6 -4 -7 -10 -4 -6 3 -7 -1 -4 -10 5
-11 2 -14 -10 -9 -11 4 -15 13 -11 28 6 20 5 20 -6 2 -9 -16 -9 -21 4 -31 19
-14 5 -45 -21 -45 -23 0 -41 -43 -36 -80 3 -18 1 -30 -6 -30 -15 0 -8 -72 8
-78 8 -2 12 10 12 40 0 24 7 53 15 65 8 12 12 28 9 37 -3 9 -1 16 5 16 6 0 11
6 11 14 0 8 7 16 15 20 8 3 15 11 15 17 0 7 16 31 35 55 19 23 35 46 35 50 0
4 11 20 25 34 l25 26 -24 23 c-17 16 -26 19 -31 11z m-113 -242 c-7 -7 -12
-21 -12 -32 0 -17 -2 -18 -10 -6 -6 10 -4 20 7 32 9 10 19 18 22 18 3 0 0 -5
-7 -12z"/>
<path d="M1630 2832 c0 -11 37 -41 43 -35 3 2 -3 13 -14 24 -20 20 -29 24 -29
11z"/>
<path d="M1636 2771 c-5 -7 -5 -16 0 -20 15 -10 54 -69 54 -81 0 -5 4 -10 9
-10 5 0 12 -14 16 -31 5 -22 11 -29 22 -24 12 4 13 3 5 -8 -7 -8 -9 -17 -5
-21 16 -16 29 -77 27 -129 -1 -31 2 -57 7 -57 15 0 10 129 -7 161 -8 16 -12
39 -9 50 4 11 3 33 0 50 -5 24 -10 28 -19 19 -8 -10 -8 -14 2 -17 15 -6 16
-33 1 -33 -10 0 -23 31 -19 45 1 4 -7 14 -18 23 -10 9 -22 27 -26 40 -4 12
-11 22 -16 22 -5 0 -10 8 -12 18 -3 13 -5 14 -12 3z"/>
<path d="M1680 2773 c0 -4 5 -15 10 -23 8 -13 10 -13 10 2 0 9 -4 20 -10 23
-5 3 -10 3 -10 -2z"/>
<path d="M1711 2730 c-1 -21 16 -46 26 -37 4 5 3 11 -3 15 -6 4 -14 14 -17 22
-5 13 -5 13 -6 0z"/>
<path d="M3500 2681 c0 -6 5 -13 10 -16 6 -3 10 1 10 9 0 9 -4 16 -10 16 -5 0
-10 -4 -10 -9z"/>
<path d="M610 1816 c-15 -19 -6 -35 60 -106 207 -223 257 -290 218 -290 -5 0
-41 -19 -80 -42 -96 -58 -130 -78 -218 -125 -82 -45 -98 -69 -53 -78 15 -4 35
-10 44 -15 9 -4 42 -11 75 -15 32 -4 64 -11 69 -15 6 -4 39 -11 75 -15 36 -4
70 -10 75 -14 6 -3 39 -11 75 -18 290 -54 358 -68 367 -77 4 -3 5 -31 4 -62
-3 -62 7 -80 50 -89 17 -4 42 -13 57 -21 15 -8 35 -14 44 -14 9 0 19 -4 22 -9
4 -5 24 -12 46 -16 22 -4 42 -11 46 -16 3 -5 10 -7 15 -3 5 3 15 1 22 -4 7 -6
29 -13 50 -17 20 -4 39 -11 42 -15 3 -5 23 -11 45 -15 22 -4 42 -10 45 -15 3
-5 23 -11 45 -15 22 -4 40 -10 40 -15 0 -4 22 -10 50 -14 27 -4 52 -11 55 -16
4 -6 10 -8 15 -5 5 3 11 1 14 -4 4 -5 24 -12 46 -16 22 -4 42 -10 45 -15 3 -5
23 -11 45 -15 22 -4 42 -10 45 -15 3 -5 23 -11 45 -15 22 -4 42 -10 45 -15 3
-4 22 -11 42 -15 21 -4 44 -12 52 -18 8 -7 17 -11 20 -10 10 4 85 -19 99 -30
16 -13 98 -12 115 1 7 5 46 15 87 22 41 7 80 16 85 20 6 4 33 11 60 15 28 4
55 10 60 13 6 4 35 12 65 19 101 21 155 34 170 40 17 8 87 24 210 50 47 10 90
21 95 25 6 3 36 9 68 13 31 4 57 11 57 15 0 4 25 11 55 15 30 3 57 10 60 15 3
4 28 11 57 15 79 11 88 20 88 86 0 79 8 85 160 112 36 7 70 15 75 19 6 3 37 9
70 13 33 4 65 11 70 15 6 4 35 11 65 15 30 4 61 11 70 15 8 5 58 16 110 25
224 37 232 39 248 63 8 12 13 24 11 25 -2 2 -98 50 -214 107 -115 57 -212 105
-214 107 -7 5 31 43 42 43 5 0 62 49 127 110 65 60 122 110 127 110 5 0 26 17
46 38 45 46 42 72 -8 72 -19 0 -36 -4 -40 -9 -3 -5 -34 -13 -70 -16 -36 -4
-67 -11 -70 -15 -3 -5 -33 -11 -67 -15 -35 -4 -67 -11 -73 -15 -5 -4 -53 -13
-105 -20 -52 -7 -99 -16 -105 -20 -5 -4 -38 -11 -73 -15 -34 -4 -64 -11 -67
-15 -3 -5 -34 -12 -70 -15 -36 -4 -67 -11 -70 -15 -3 -4 -36 -11 -75 -15 -39
-4 -72 -11 -75 -15 -3 -5 -34 -12 -70 -15 -77 -9 -106 -31 -86 -68 36 -67 43
-77 52 -77 5 0 9 -6 9 -14 0 -7 7 -19 15 -26 13 -11 12 -14 -8 -25 -13 -7 -41
-15 -63 -19 -21 -5 -43 -11 -49 -16 -5 -4 -28 -11 -50 -15 -22 -4 -44 -10 -50
-15 -5 -4 -41 -13 -80 -19 -38 -7 -74 -16 -80 -21 -5 -4 -29 -11 -52 -15 -24
-4 -45 -11 -48 -15 -3 -5 -26 -12 -50 -16 -25 -3 -48 -10 -51 -15 -2 -5 -27
-11 -54 -15 -28 -4 -50 -10 -50 -15 0 -4 -21 -11 -47 -15 -27 -3 -52 -9 -58
-12 -11 -7 -11 -7 -80 -23 -27 -6 -54 -15 -59 -20 -13 -12 -76 -12 -76 0 0 5
-17 12 -37 16 -21 4 -43 11 -50 17 -7 5 -17 7 -22 4 -5 -4 -12 -2 -15 3 -4 5
-24 12 -46 16 -22 4 -42 10 -45 15 -3 5 -23 11 -45 15 -22 4 -42 10 -45 15 -3
4 -21 11 -41 15 -20 3 -44 10 -53 15 -23 12 -108 39 -161 52 -25 6 -49 14 -55
18 -5 5 -27 11 -48 15 -20 4 -40 11 -42 16 -3 4 -26 11 -50 15 -25 3 -47 10
-50 14 -3 5 -23 11 -45 15 -22 4 -42 11 -46 16 -3 5 -14 9 -24 9 -38 0 -31 22
24 80 80 84 73 110 -32 125 -29 4 -54 11 -57 15 -3 5 -24 11 -48 15 -23 4 -46
11 -52 15 -5 4 -30 12 -55 18 -25 6 -76 18 -115 27 -38 9 -79 20 -90 25 -11 5
-36 12 -55 16 -19 3 -39 10 -45 14 -5 4 -34 11 -62 15 -29 4 -55 11 -58 15 -3
5 -26 12 -50 16 -25 3 -47 10 -50 14 -3 5 -38 14 -78 21 -39 7 -77 16 -83 21
-6 4 -32 11 -58 14 -26 4 -49 11 -52 15 -8 13 -20 11 -34 -5z m136 -65 c5 -4
38 -14 74 -21 36 -6 70 -15 75 -20 6 -4 30 -11 55 -15 24 -4 51 -11 60 -16 8
-4 35 -13 60 -19 25 -6 68 -18 95 -25 28 -8 70 -19 95 -25 25 -7 54 -16 65
-20 11 -5 44 -14 73 -20 28 -7 52 -15 52 -18 -1 -4 -30 -38 -65 -77 l-65 -70
0 -172 0 -173 -34 0 c-19 0 -37 4 -40 9 -3 5 -34 12 -68 16 -35 4 -67 11 -73
15 -5 4 -53 13 -105 20 -52 7 -99 16 -105 20 -5 4 -40 11 -78 15 -37 4 -69 11
-72 15 -3 4 -37 11 -75 15 -41 4 -70 11 -68 17 4 10 30 26 148 91 30 17 82 47
115 67 33 20 68 39 78 43 35 13 15 55 -75 152 -122 132 -168 185 -168 195 0
12 32 13 46 1z m3780 -124 c-159 -136 -291 -262 -291 -276 0 -15 174 -111 203
-111 6 0 12 -4 12 -10 0 -5 5 -10 11 -10 13 0 101 -41 109 -51 3 -4 15 -10 28
-14 40 -12 18 -29 -54 -42 -139 -24 -189 -34 -209 -43 -11 -5 -45 -12 -75 -16
-30 -3 -59 -10 -65 -14 -5 -4 -37 -11 -70 -15 -33 -4 -64 -10 -70 -15 -5 -4
-37 -11 -69 -15 -33 -4 -70 -11 -83 -16 -51 -19 -53 -11 -53 185 l0 182 -30
59 c-17 33 -35 64 -40 69 -19 19 -10 36 19 36 17 0 32 4 35 9 3 5 34 12 68 16
35 4 68 10 73 14 6 3 55 14 110 24 190 34 230 42 240 49 6 3 37 9 70 13 33 4
65 11 70 15 9 7 48 14 95 18 8 0 -7 -18 -34 -41z m-3121 -237 c3 -5 14 -10 23
-10 9 0 30 -7 46 -15 15 -8 32 -13 36 -10 5 3 11 1 15 -5 3 -5 14 -10 25 -10
10 0 20 -7 24 -15 3 -8 16 -15 30 -15 14 0 28 -5 31 -10 4 -6 10 -8 15 -5 5 3
11 1 14 -4 4 -5 24 -12 46 -16 22 -4 42 -10 45 -15 3 -5 24 -11 48 -15 23 -4
47 -11 52 -15 6 -4 26 -11 45 -15 19 -4 41 -11 50 -16 18 -10 105 -33 106 -28
0 2 7 -1 15 -7 8 -7 30 -15 49 -19 19 -4 41 -11 50 -15 27 -14 236 -80 254
-80 9 0 16 -4 16 -9 0 -4 27 -14 60 -21 33 -7 63 -17 66 -21 7 -12 101 -12
108 0 3 4 34 14 68 21 35 6 68 15 73 20 6 4 27 11 49 14 21 4 46 11 55 16 9 5
34 13 56 19 22 5 60 15 85 21 25 6 52 15 61 20 9 5 34 12 55 16 22 3 44 9 49
13 11 6 10 6 80 22 28 6 55 15 60 19 6 4 28 11 50 15 22 4 45 10 50 15 6 4 32
11 59 15 27 3 56 10 65 15 36 18 77 34 88 35 6 0 15 4 19 8 4 4 17 7 30 7 12
0 24 4 26 10 2 5 13 7 26 4 l22 -6 -2 -256 -3 -257 -50 -7 c-27 -5 -57 -12
-66 -17 -9 -5 -38 -13 -65 -16 -27 -4 -53 -11 -59 -15 -5 -5 -32 -11 -60 -15
-27 -4 -54 -11 -60 -15 -5 -4 -44 -13 -85 -20 -41 -7 -79 -16 -85 -20 -5 -4
-36 -11 -67 -14 -32 -4 -60 -11 -63 -16 -3 -5 -30 -12 -60 -15 -31 -4 -58 -11
-60 -15 -3 -5 -30 -12 -60 -15 -30 -4 -55 -10 -55 -14 0 -4 -36 -13 -80 -20
-44 -8 -82 -17 -85 -21 -3 -4 -29 -11 -60 -15 -30 -3 -57 -11 -60 -16 -8 -12
-82 -12 -89 0 -3 5 -23 12 -43 16 -21 4 -43 11 -50 17 -7 5 -17 7 -22 4 -5 -4
-12 -2 -15 3 -4 5 -24 12 -46 16 -22 4 -42 11 -46 16 -3 5 -13 9 -22 9 -9 0
-29 6 -44 14 -15 8 -42 17 -60 21 -18 4 -37 11 -43 15 -5 4 -26 11 -45 14 -19
4 -44 11 -55 15 -11 5 -162 55 -335 112 -173 56 -319 106 -325 111 -6 6 -11
433 -5 496 0 7 30 1 35 -8z"/>
<path d="M1748 1184 c-28 -8 -21 -26 10 -24 65 4 96 -32 66 -78 -12 -18 -23
-22 -52 -20 -28 2 -37 -1 -40 -14 -3 -14 3 -18 28 -18 17 0 30 -3 28 -7 -32
-67 -26 -63 -105 -63 -40 0 -73 -4 -73 -9 0 -16 20 -23 33 -12 18 14 79 -8
147 -53 30 -20 61 -36 70 -37 8 0 23 -2 33 -4 9 -2 17 1 17 6 0 5 -9 9 -19 9
-30 0 -33 15 -14 54 14 27 24 36 44 36 41 0 52 -22 50 -99 -2 -46 2 -71 11
-78 19 -15 98 -26 98 -13 0 5 -6 10 -14 10 -9 0 -16 15 -19 43 -3 23 -9 59
-15 80 l-10 37 35 0 c52 0 73 15 73 54 0 44 -18 57 -93 71 -56 11 -62 14 -59
35 2 22 1 23 -16 7 -10 -9 -28 -17 -40 -17 -18 0 -22 6 -22 34 0 29 -5 37 -32
50 -35 18 -93 27 -120 20z m182 -130 c0 -10 -82 -144 -92 -150 -5 -4 -14 -2
-19 3 -9 9 22 79 59 129 15 21 52 34 52 18z m93 -16 c12 -6 29 -14 37 -18 8
-4 16 -17 18 -29 3 -15 -4 -24 -23 -31 -29 -11 -122 -3 -131 11 -3 5 2 25 12
44 18 38 45 45 87 23z"/>
<path d="M3396 1053 c-34 -22 -41 -24 -63 -12 -21 11 -29 11 -55 -4 -16 -9
-44 -17 -62 -17 -22 0 -40 -8 -56 -25 -27 -29 -42 -31 -60 -10 -18 22 -48 18
-83 -11 -26 -22 -38 -25 -74 -21 -25 2 -49 -1 -60 -8 -34 -23 -62 -27 -79 -11
-23 24 -44 20 -44 -8 0 -17 9 -29 27 -38 36 -17 39 -32 9 -46 -15 -7 -27 -23
-31 -43 -6 -27 -3 -36 15 -51 30 -24 47 -23 99 10 l44 28 23 -23 c22 -22 24
-22 53 -5 35 19 40 32 12 32 -27 0 -38 18 -46 76 -6 51 -6 52 26 68 55 27 72
19 84 -39 1 -5 5 -23 10 -39 7 -24 4 -33 -15 -48 l-22 -18 34 0 c19 0 39 -5
44 -10 8 -8 15 -6 24 5 7 8 18 15 26 15 7 0 18 9 24 20 10 19 9 20 -14 14 -20
-5 -27 -2 -32 12 -3 11 -10 27 -15 36 -21 41 -3 78 38 78 13 0 41 11 62 25
l39 24 15 -22 c23 -37 31 -125 12 -153 -38 -59 48 -90 110 -40 41 33 27 42
-24 15 -40 -20 -71 -20 -71 1 0 5 38 40 85 76 l85 67 0 47 c0 33 -6 52 -18 63
-24 22 -29 21 -76 -10z m32 -45 c18 -18 15 -46 -9 -79 -27 -38 -39 -37 -39 4
0 18 -5 38 -12 45 -8 8 -8 15 2 27 15 18 41 20 58 3z m-524 -120 c36 -52 -3
-123 -63 -116 -48 6 -36 69 15 80 16 4 15 6 -8 16 -45 18 -34 33 29 41 6 0 19
-9 27 -21z"/>
<path d="M2264 927 l-72 -10 -4 -58 c-3 -38 -11 -65 -23 -79 -16 -18 -17 -20
-1 -20 9 0 28 -7 42 -16 18 -13 36 -15 72 -10 26 4 62 7 80 6 l32 -1 0 59 c0
43 5 63 19 79 19 20 19 20 -25 41 -25 12 -46 21 -47 21 -1 -1 -34 -6 -73 -12z
m64 -40 c15 -12 16 -99 0 -115 -15 -15 -53 -16 -79 -2 -31 17 -24 125 10 132
20 5 52 -2 69 -15z"/>
<path d="M2663 911 c-5 -20 -11 -22 -42 -19 -24 3 -46 -2 -66 -14 -16 -10 -42
-18 -57 -18 -25 0 -26 -2 -21 -41 4 -29 2 -44 -8 -50 -9 -6 0 -9 29 -9 23 0
42 -4 42 -8 0 -5 -16 -27 -35 -49 -37 -43 -49 -77 -18 -52 10 9 41 14 80 14
35 0 67 5 71 12 4 6 21 13 37 17 29 6 30 8 26 57 l-3 51 -45 -5 -45 -5 46 47
c50 51 54 62 30 81 -13 11 -16 10 -21 -9z m-43 -71 c0 -17 -39 -50 -60 -50
-16 0 -20 7 -20 30 0 28 2 30 40 30 22 0 40 -4 40 -10z m20 -105 l0 -35 -55 0
c-30 0 -55 4 -55 9 0 17 62 61 86 61 21 0 24 -5 24 -35z"/>
<path d="M1740 474 c0 -60 4 -114 8 -120 4 -7 33 -15 65 -19 31 -4 60 -11 63
-16 10 -17 34 -9 34 11 0 15 -7 20 -28 20 -15 0 -32 4 -37 9 -6 5 -21 11 -35
13 -20 2 -26 9 -28 37 l-3 33 60 -7 c40 -5 61 -3 61 3 0 16 -19 26 -70 37 -39
9 -45 14 -48 39 l-4 28 54 -7 c29 -4 55 -11 56 -16 6 -16 22 -9 22 9 0 21 -41
38 -117 48 l-53 7 0 -109z"/>
<path d="M3328 529 c-10 -5 -18 -7 -18 -3 0 4 -11 -3 -24 -15 -20 -19 -22 -27
-15 -59 9 -40 3 -82 -12 -82 -18 0 -9 -50 13 -70 30 -27 47 -25 90 10 46 38
54 62 33 94 -15 23 -15 28 -2 55 14 28 14 32 -8 56 -27 28 -32 29 -57 14z m32
-44 c15 -19 -3 -45 -31 -45 -24 0 -29 10 -18 38 10 25 31 29 49 7z m6 -112 c2
-32 -32 -60 -54 -47 -39 25 -19 77 27 72 19 -2 26 -9 27 -25z"/>
<path d="M1980 505 c-11 -12 -20 -30 -20 -41 0 -18 39 -64 55 -64 17 0 75 -55
75 -71 0 -32 -84 -22 -93 11 -5 21 -47 47 -47 29 0 -43 67 -99 117 -99 85 0
82 118 -3 144 -28 9 -68 52 -59 65 11 19 47 12 69 -13 11 -12 29 -26 39 -29
15 -6 17 -3 11 16 -19 63 -104 94 -144 52z"/>
<path d="M3175 503 c-11 -2 -29 -6 -40 -8 -22 -5 -40 -41 -48 -97 -6 -40 12
-58 33 -32 7 8 23 14 36 14 21 0 24 -5 24 -33 0 -21 -8 -41 -20 -52 -19 -17
-21 -17 -38 -2 -24 22 -42 21 -42 -1 0 -22 19 -42 40 -42 27 0 80 30 80 46 0
8 5 14 10 14 6 0 10 17 10 38 0 49 -27 77 -65 68 -23 -6 -26 -4 -23 16 2 18
12 25 46 32 31 7 42 14 42 27 0 19 -6 21 -45 12z"/>
<path d="M2160 473 c0 -18 24 -33 52 -33 l28 0 0 -111 c0 -100 2 -110 18 -107
15 3 17 17 20 105 3 97 4 102 21 91 22 -13 54 -4 49 15 -3 6 -18 14 -34 15
-16 2 -34 8 -39 12 -16 13 -115 24 -115 13z"/>
<path d="M2921 441 c-25 -23 -31 -37 -31 -69 0 -50 19 -66 65 -59 29 5 35 3
35 -12 0 -19 -30 -51 -48 -51 -6 0 -12 6 -14 14 -3 13 -6 13 -22 1 -27 -21 -5
-45 41 -43 26 1 40 9 60 34 21 28 25 44 25 104 1 54 -3 75 -17 90 -25 28 -58
25 -94 -9z m67 -44 c4 -33 -13 -57 -39 -57 -15 0 -19 7 -19 33 0 58 52 80 58
24z"/>
<path d="M2380 322 c0 -135 1 -136 91 -146 62 -8 69 -4 92 46 19 40 22 84 7
93 -6 4 -7 11 -4 17 3 5 -9 25 -27 44 -25 26 -44 35 -81 40 -27 4 -51 11 -54
15 -17 28 -24 -3 -24 -109z m107 52 c26 -7 35 -30 37 -94 2 -54 -8 -70 -41
-70 -53 0 -63 14 -63 95 0 81 4 86 67 69z"/>
<path d="M2772 411 c-9 -17 -27 -35 -39 -40 -13 -6 -23 -17 -23 -26 0 -19 10
-19 38 1 l22 15 0 -80 c0 -74 2 -81 20 -81 19 0 20 7 20 120 0 126 -7 144 -38
91z"/>
</g>
</svg>
